<svg id="Layer_1" data-name="Layer 1" xmlns="http://www.w3.org/2000/svg" viewBox="0 0 269.48 134.74"><defs><style>.cls-1{fill:#1b1815;}.cls-2{fill:#fff;}.cls-3{fill:#6bb6e5;}.cls-4{fill:#f18f21;}.cls-5{fill:#f2d95b;}.cls-6{fill:#2f67b1;}.cls-7{fill:#68a1d6;}.cls-8{fill:#85b6e1;}.cls-9{fill:#efb549;}.cls-10{fill:#538dca;}.cls-11{fill:#ed7422;}.cls-12{fill:#ee8d21;}.cls-13{fill:#e5aa43;}.cls-14{fill:#bdd7f0;}.cls-15{fill:#040404;}.cls-16{fill:#fbfbfb;}</style></defs><path class="cls-1" d="M242.62,41.46l3-2.38,4.18-3.37a3.58,3.58,0,0,1,.39-.29.58.58,0,0,1,.88.49,3,3,0,0,1-.05.6c-.39,2.49-.79,5-1.18,7.48-.11.68-.2,1.36-.29,2,0,.13.06.19.18.14l.45-.19,8.52-3.76.33-.15a.55.55,0,0,1,.62.14.58.58,0,0,1,.16.62c0,.13-.11.26-.17.39l-3.76,8.53a1.26,1.26,0,0,0-.19.61l1.7-.25,2.77-.43,3.55-.56,1.87-.29a2.07,2.07,0,0,1,.43,0,.57.57,0,0,1,.47.84,2.63,2.63,0,0,1-.28.4l-5.74,7.13a5.84,5.84,0,0,0-.5.65c.31,0,.56.11.82.13l4.49.49,3.94.41,1,.11a.58.58,0,0,1,.55.41.6.6,0,0,1-.23.7l-1.13.83-6.75,4.94c-.13.09-.29.15-.36.36a1.75,1.75,0,0,0,.46.21l8.74,3.39c.13.05.27.09.4.15a.58.58,0,0,1,.34.53.55.55,0,0,1-.32.55,2.66,2.66,0,0,1-.39.16l-8.74,3.39-.4.15a.12.12,0,0,0,0,.2l.39.29,7.49,5.48a3.58,3.58,0,0,1,.39.29.61.61,0,0,1-.31,1l-.85.1-2.79.29-2.79.31-2.49.28a4.76,4.76,0,0,0-.66.08,4.43,4.43,0,0,0-.58.2c0,.19.15.29.24.41L266,92.81l.37.48a.56.56,0,0,1,.05.63.52.52,0,0,1-.55.3c-.47,0-.93-.11-1.39-.18l-3.74-.58-3.55-.57-1.39-.19s-.11,0-.16,0a.8.8,0,0,0,.17.53c1.25,2.86,2.52,5.72,3.78,8.59a2.71,2.71,0,0,1,.17.39.61.61,0,0,1-.75.74,3.57,3.57,0,0,1-.45-.19L250.11,99a1.56,1.56,0,0,0-.56-.2.86.86,0,0,0,0,.55q.51,3.31,1,6.63c.13.87.27,1.73.4,2.6,0,.16,0,.32,0,.48a.59.59,0,0,1-.91.51l-.43-.33-6.48-5.2a3.15,3.15,0,0,0-.29-.22.13.13,0,0,0-.1,0,.23.23,0,0,0,0,.12,17.91,17.91,0,0,0,.08,2.07,4.45,4.45,0,0,1,0,.73c0,.78,0,1.55,0,2.32a8.16,8.16,0,0,0,.27,1.63.34.34,0,0,0,.33.29c1.07.11,2.14.24,3.21.37a1,1,0,0,1,.24,0c.5.11.65.26.66.79s0,1.31,0,2c0,.3,0,.61,0,.91,0,1.63-.2,3.25-.32,4.87-.07.93-.18,1.86-.21,2.8s-.14,2.11-.2,3.17c0,.55,0,.56.52.74.77.26,1.51.58,2.3.78a4.74,4.74,0,0,1,1,.37,26.77,26.77,0,0,0,2.45,1.08,9.19,9.19,0,0,1,1.1.52,2,2,0,0,1,.81.73,2.63,2.63,0,0,0,.3.38,3.86,3.86,0,0,1,.84,1.47,2.15,2.15,0,0,1-.26,1.92,13.7,13.7,0,0,1-2,2.17,5.1,5.1,0,0,1-1.62.67c-.58.13-1.16.18-1.74.3s-1.13.13-1.69.2a9,9,0,0,1-1.16,0,12.78,12.78,0,0,0-1.64.09,6.85,6.85,0,0,1-1.28,0,11.15,11.15,0,0,0-2.31,0,9,9,0,0,1-1,0,4.2,4.2,0,0,0-1.27.1,1.29,1.29,0,0,1-.48,0,6.83,6.83,0,0,0-1.28.09,2.7,2.7,0,0,1-.49,0c-1,0-2,.08-3,0a11.93,11.93,0,0,0-1.88.16,3.88,3.88,0,0,1-.48,0c-1.24,0-2.48,0-3.72,0-1,0-1.91-.13-2.86-.18s-1.79,0-2.69-.1c-1.18-.06-2.35-.16-3.53-.25s-2.38-.25-3.58-.34-2.19-.2-3.27-.38c-1.29-.2-2.58-.36-3.87-.46-.89-.07-1.79-.15-2.67-.3-.48-.09-1-.11-1.45-.16-.91-.1-1.83-.13-2.73-.29a18.84,18.84,0,0,1-4.2-1,5.63,5.63,0,0,1-.61-.27,1.93,1.93,0,0,1-.95-2.23,3.72,3.72,0,0,1,1.26-1.9,12.31,12.31,0,0,1,4.17-2.21,31.18,31.18,0,0,1,3.3-.82c.54-.13,1.06-.29,1.58-.45a.52.52,0,0,0,.36-.3,4.7,4.7,0,0,1,3.17-2.62,8,8,0,0,1,1.55-.32,8.8,8.8,0,0,1,3.6.47c.12-.07.08-.17.07-.26-.37-2.29-.7-4.58-1.16-6.85a18,18,0,0,1-.29-2.42,5.93,5.93,0,0,0-.22-1.39,12.37,12.37,0,0,1-.31-2.1.32.32,0,0,1,.33-.36,5,5,0,0,1,1.22,0,13,13,0,0,0,2.46-.1c-.24-2.41-.51-4.82-.78-7.29a3.41,3.41,0,0,0-.64.46l-7.09,5.7-.29.23a.59.59,0,0,1-.72.13.64.64,0,0,1-.31-.73c0-.38.11-.76.17-1.15l.69-4.46.66-4.22c0-.08,0-.15,0-.23s-.35.09-.51.16l-7.79,3.44-1,.44c-.52.22-.8.09-1-.45,0-.14-.07-.22-.22-.22a2.1,2.1,0,0,1-.24-.06.88.88,0,0,1-.7-.52l-.16-.33c-.15.12-.29.24-.44.34a.65.65,0,0,1-.79,0,1.79,1.79,0,0,1-.6-.68,3.94,3.94,0,0,1-.41-1.45.36.36,0,0,0-.22-.32,1,1,0,0,1-.55-1.23,2.34,2.34,0,0,1,.34-.85,4.42,4.42,0,0,1,.61-.76c0-.14-.16-.16-.21-.25a.44.44,0,0,1,.11-.6c.17-.14.36-.26.54-.39a.21.21,0,0,0,.08-.26c-.08-.23-.15-.47-.23-.7s-.14-.37-.53-.3l-1.92.31a2.52,2.52,0,0,1-.67,0,.56.56,0,0,1-.45-.81,2.14,2.14,0,0,1,.28-.39c.61-.77,1.22-1.53,1.84-2.29a.66.66,0,0,0,.16-.65,13.27,13.27,0,0,1-.38-3.2V85c0-.33,0-.34-.31-.38-.58-.08-1.17-.15-1.75-.21l-3.52-.38a.57.57,0,0,1-.55-.4.59.59,0,0,1,.22-.71l.29-.21L196,77.26a1.41,1.41,0,0,0,.45-.39c-.13-.22-.37-.22-.57-.29l-8.45-3.28-.46-.19a.59.59,0,0,1-.45-.58.6.6,0,0,1,.49-.61l.34-.14,8.62-3.34.5-.2c-.07-.23-.25-.3-.39-.4l-7.3-5.33-.58-.44a.57.57,0,0,1-.22-.65.59.59,0,0,1,.53-.44l1.16-.12,4.18-.46,2.73-.29c.71-.07,1.41-.16,2.12-.24,0-.21-.14-.3-.23-.42l-5.78-7.19a4.92,4.92,0,0,1-.44-.58.57.57,0,0,1,.45-.86,3.26,3.26,0,0,1,.54,0l5.06.81,4.52.68q.3,0,.18-.24L201.58,49l-2.53-5.74-.15-.34a.55.55,0,0,1,.13-.67.57.57,0,0,1,.67-.13c.81.37,1.63.72,2.45,1.08l6.4,2.83c.15.06.3.13.45.18a.11.11,0,0,0,.15-.13c-.07-.5-.14-1-.22-1.51l-.84-5.36c-.14-.91-.29-1.81-.43-2.72,0-.16,0-.32,0-.48a.55.55,0,0,1,.28-.56.57.57,0,0,1,.69,0l.47.38,7.14,5.74.39.31c.15-.11.1-.27.13-.39a2.2,2.2,0,0,0,0-.37c.17-1.47.33-3,.48-4.43.1-.93.2-1.86.29-2.79,0-.28,0-.29-.25-.41a13.43,13.43,0,0,0-3.56-1,15.37,15.37,0,0,0-3.65-.05,13.38,13.38,0,0,0-2.36.31,49.18,49.18,0,0,0-4.91,1.42c-1.26.45-2.5,1-3.75,1.45a12.15,12.15,0,0,0-1.23.66l-.83.38c-.11.05-.19,0-.19-.16a3.73,3.73,0,0,1,.27-.92,3.12,3.12,0,0,1,.3-.73c.5-1,1-1.93,1.39-2.92a32.56,32.56,0,0,1,2.1-3.85c.55-.91,1.11-1.8,1.65-2.71a18.76,18.76,0,0,1,1.61-2.22l1.66-2c.41-.51.85-1,1.3-1.45.71-.73,1.4-1.48,2.08-2.24.53-.59,1.09-1.15,1.65-1.72,1.25-1.28,2.6-2.46,4-3.62A16.62,16.62,0,0,1,216.29,11,30.85,30.85,0,0,1,220,8.71a36.57,36.57,0,0,1,3.87-1.78c1-.36,2-.83,3.09-1.12s1.82-.56,2.76-.73c1.28-.22,2.57-.43,3.86-.59a15,15,0,0,1,1.64,0,6.14,6.14,0,0,0,.86,0,10,10,0,0,1,2.19,0c.66.09,1.33.13,2,.17,1.52.09,3.05.15,4.57.26a26.82,26.82,0,0,1,3,.34l.3.06c2.18.65,4.37,1.27,6.53,2,1.7.55,3.4,1.1,5.06,1.76a30.4,30.4,0,0,1,3.71,1.83,20.86,20.86,0,0,1,3.29,2.3,5,5,0,0,0,.6.42,14.63,14.63,0,0,1,2,1.65c.41.42.9.76,1.35,1.15l2.4,2.16c.14.12.26.27.4.38a12.78,12.78,0,0,1,1.72,1.73c.67.76,1.37,1.51,2,2.29a34.33,34.33,0,0,1,2.86,3.72c.55.85,1.08,1.72,1.57,2.61a8.88,8.88,0,0,1,.58,1.34,43.27,43.27,0,0,1,1.61,5.11,8.78,8.78,0,0,1,.31,2.29.81.81,0,0,1-.06.41c-.2.37-.31.45-.65.22s-.58-.29-.87-.44c-.52-.27-1-.56-1.55-.84a32.83,32.83,0,0,0-4-2c-1.1-.42-2.23-.74-3.34-1.15a11.61,11.61,0,0,0-2.24-.54c-.54-.08-1.09-.12-1.64-.18a30.88,30.88,0,0,0-3.47,0,9,9,0,0,0-1.93.29c-.61.14-1.22.28-1.83.44A10.17,10.17,0,0,0,258,36.65c-.38.36-.44.35-.91.14a2.34,2.34,0,0,1-.76-.5,11.34,11.34,0,0,0-1.8-1.36,18.7,18.7,0,0,0-2.95-1.68c-.61-.24-1.21-.48-1.8-.75a21.88,21.88,0,0,0-3-1.1,16,16,0,0,0-3.88-.75h-.29C242.57,31.28,242.52,40.35,242.62,41.46ZM214,98h0a.3.3,0,0,0,.24.15,2.15,2.15,0,0,0,.24.18,30.61,30.61,0,0,0,3.76,1.87,27.3,27.3,0,0,0,6.27,1.75,27.74,27.74,0,0,0,3.52.32,29.86,29.86,0,0,0,3.41-.08c.93-.08,1.87-.18,2.79-.32a28.45,28.45,0,0,0,4.16-1,27.22,27.22,0,0,0,5-2,31.85,31.85,0,0,0,4.48-3,30.92,30.92,0,0,0,4.68-4.54,26.7,26.7,0,0,0,3.85-6.13c.22-.48.24-.48-.28-.68a24.84,24.84,0,0,1-2.82-1.31c-.52-.28-1-.55-1.58-.79-1.07-.48-2.2-.83-3.3-1.24-.88-.31-1.79-.55-2.65-.91a1.45,1.45,0,0,0-.3,0,5.54,5.54,0,0,0-.19,1,.33.33,0,0,1-.4.27c-.19,0-.32-.18-.54-.25a1.44,1.44,0,0,1-.85.35,5.11,5.11,0,0,1-.55,0c-.37,0-.44.12-.45.51s0,.57,0,.85c0,.73,0,1.47,0,2.2,0,1,0,1.91,0,2.87,0,.43-.17.57-.6.6-.66,0-.78-.08-.81-.75,0-.52,0-1,0-1.58,0-1.32,0-2.64,0-4a.63.63,0,0,0-.14-.52,7.38,7.38,0,0,1-1.33-.1,1.36,1.36,0,0,1-.85-.44.66.66,0,0,1,0-1c.09-.1.24-.14.28-.32l-.63-.24a.78.78,0,0,1-.57-.72.8.8,0,0,1,.51-.82l.62-.23a2.08,2.08,0,0,1-.3-.25.9.9,0,0,1,.53-1.51,2.32,2.32,0,0,1,1.08,0,1.36,1.36,0,0,0,.6,0c.07-.14-.06-.3.05-.42s.17-.49.18-.75,0-.77,0-1.16c0-3.39,0-6.79,0-10.19,0-2.26,0-4.52,0-6.77,0-1.57,0-3.13.05-4.7l0-5.62c0-.42,0-.85,0-1.28a.4.4,0,0,0-.27-.42,1.57,1.57,0,0,0-.23-.09,26.35,26.35,0,0,0-3-1.08,28,28,0,0,0-4.52-1,25.57,25.57,0,0,0-2.61-.24,27.35,27.35,0,0,0-4.87.2,35.7,35.7,0,0,0-3.71.71,29.67,29.67,0,0,0-4.82,1.7,14.1,14.1,0,0,0-1.9,1,.36.36,0,0,0-.26.17h0a.79.79,0,0,0-.39.16c-.76.47-1.52.93-2.26,1.44a31.74,31.74,0,0,0-3.33,2.68,29.54,29.54,0,0,0-5.13,6.33,30.28,30.28,0,0,0-4,10.92,27.11,27.11,0,0,0-.37,4.68c0,.69.05,1.38.09,2.07a25.05,25.05,0,0,0,.58,4.22A30.06,30.06,0,0,0,201.87,84a29.4,29.4,0,0,0,5,8.07,28.72,28.72,0,0,0,6.51,5.58,1.11,1.11,0,0,0,.48.25h0A.13.13,0,0,0,214,98ZM199.4,78.92a4.72,4.72,0,0,0-.26-1.13,1.53,1.53,0,0,0-.46.49,10.64,10.64,0,0,0-1,1.66.68.68,0,0,0-.11.34,5.24,5.24,0,0,0-.47,1.21,1.75,1.75,0,0,0-.25.8c-.06.4-.11.81-.18,1.21-.14.91-.23.8.73.92l2.49.28c-.15.2-.28.4-.44.59-.76,1-1.52,1.91-2.3,2.85A.75.75,0,0,0,197,89l0,.12c.29,1.06.61,2.11.85,3.18a2.45,2.45,0,0,0,.08.29c.06.19.09.22.31.2l1-.14,2.83-.43,2-.3a.83.83,0,0,1-.1.35c-.34.76-.67,1.53-1,2.29-.63,1.41-1.25,2.83-1.88,4.24a.69.69,0,0,0,0,.68,2.8,2.8,0,0,1,.13.41,1.33,1.33,0,0,1-.24,1.09.81.81,0,0,1-.79.37c-.08,0-.16,0-.21.08a2.84,2.84,0,0,0-.34.78s.06.1.12.07.3-.12.45-.18l6.92-3c.94-.42,1.9-.83,2.85-1.24a2.29,2.29,0,0,1,0,.37l-.39,2.53-.69,4.39c-.19,1.2-.38,2.41-.56,3.61,0,.09-.08.19.06.27a3.53,3.53,0,0,0,.34-.24q4-3.22,8-6.46L217,102a.21.21,0,0,0,.08-.22c-.1-.41-.2-.82-.31-1.24a.31.31,0,0,0-.13-.18c-.43-.14-.79-.42-1.23-.52l-1.83-1c-.34-.18-.66-.38-1-.56l-2.41-1.73a10.05,10.05,0,0,0-1.41-1.2.69.69,0,0,0-.13-.2c-.58-.49-1.07-1-1.59-1.58l-.56-.56a11.77,11.77,0,0,0-1.12-1.33c-.58-.82-1.17-1.64-1.76-2.45l-.45-.79-1.18-2c-.26-.59-.52-1.18-.8-1.76a4.34,4.34,0,0,0-.42-.93,10.23,10.23,0,0,0-.61-1.71c0-.12,0-.24-.06-.36C199.84,80.73,199.63,79.82,199.4,78.92Zm18.24,21.88c-.06-.06.05,0,0,0h0c0,.06,0,.07.07,0a.28.28,0,0,0,0,.29c0,.18.1.35.14.53l.51,2.13c.11.89.27,1.76.4,2.65a14.26,14.26,0,0,1,.17,2.36c0,.56,0,1.13,0,1.68a1.42,1.42,0,0,0,.63.08c1,0,.82.21.77-.83-.07-1.23-.23-2.46-.34-3.69-.05-.47-.09-.93-.13-1.4,0-.16,0-.32,0-.48a10.39,10.39,0,0,1-.09-2.23c0-.41,0-.41-.37-.56l-1.2-.43A1,1,0,0,0,217.64,100.8Zm3.07,4.28a5.93,5.93,0,0,0,.08,1.39,12.9,12.9,0,0,1,.15,2.06,3.53,3.53,0,0,0,.17,1.06l4-5.47c.25.13.26.4.34.62,1.24,3.16,2.46,6.33,3.69,9.5a.67.67,0,0,0,.22.36c.09-.21.18-.39.25-.58l3.66-9.44c.07-.17.1-.36.26-.47l4.22,5.76a4.09,4.09,0,0,0,.64.8c.37,0,.73,0,1.1,0s.29,0,.33-.26c.11-.57.28-1.14.35-1.73a23.57,23.57,0,0,0,.25-3.94c-.07-1.1-.2-2.19-.35-3.27,0-.13,0-.29-.16-.4l-1.11.44-3.09.85a11.08,11.08,0,0,0-1.81.33L231,103h-3.23a4.89,4.89,0,0,0-1.32-.13,3,3,0,0,1-.31,0l-1.38-.19a15.51,15.51,0,0,0-1.68-.29s-.06-.06-.1-.07c-.66-.14-1.33-.28-2-.49a.77.77,0,0,0-.48,0c-.05.54.12,1.08.08,1.62A10.74,10.74,0,0,0,220.71,105.08ZM194.82,87.49a3.37,3.37,0,0,0,0,.55c.17,1,.32,2,.57,3a14.22,14.22,0,0,0,1.3,3.33c.31.56.3.57.91.41.07,0,.16,0,.2-.11l-.06-.16a16,16,0,0,1-1.06-3.22c-.16-.67-.3-1.35-.44-2-.05-.4-.08-.81-.14-1.21A11.45,11.45,0,0,1,196,85a21.62,21.62,0,0,1,.86-4.35,9.9,9.9,0,0,1,1.81-3.21c.47-.27.43-.69.35-1.12,0-.19-.06-.38-.1-.61a2.39,2.39,0,0,0-.24.13A8.66,8.66,0,0,0,197.33,77c-.13.16-.26.31-.4.46a6.39,6.39,0,0,0-1.14,1.93,11.76,11.76,0,0,0-.68,2.08,12,12,0,0,0-.28,1.43c-.05.63,0,1.26-.12,1.88a1.56,1.56,0,0,0,0,.37C194.8,86,194.77,86.72,194.82,87.49Zm28.1-44.83c.61,0,1.2-.21,1.8-.31l3-.33H231l2.22.25.84.09,1.69.3c.54.15,1.08.31,1.62.44a14.29,14.29,0,0,0,1.46.4c.39.15.78.32,1.18.45a4.9,4.9,0,0,0,1.23.38c0-1.27.05-2.51,0-3.75a1.1,1.1,0,0,0,0-.18c-.15-1.29-.3-2.59-.44-3.88s-.27-2.63-.41-4c0-.21-.07-.43-.11-.64-.2,0-.24.17-.32.28L237.17,36c-1.22,1.65-2.43,3.31-3.65,5a1.47,1.47,0,0,1-.35-.69q-1.48-3.81-2.95-7.6a.67.67,0,0,0-.23-.38l-1.29.48a.8.8,0,0,0-.53.53c-.24.65-.5,1.29-.75,1.93q-1,2.67-2.06,5.33c-.06.15-.08.32-.26.39l-3.95-5.41a1.53,1.53,0,0,0-.59-.51c-.44-.22-.85-.47-1.29-.7a4.64,4.64,0,0,0-1.1-.41c0,.15,0,.26,0,.38-.06.51-.11,1-.16,1.52-.11,1-.22,1.89-.32,2.84s-.17,1.86-.3,2.79a8.81,8.81,0,0,1-.23,1.69l-.44-.33-4-3.25-3.94-3.17c-.13-.1-.24-.26-.45-.26a1.46,1.46,0,0,0,0,.21l.69,4.32c.28,1.77.55,3.53.81,5.3a6.54,6.54,0,0,1,.17,1.32c-.5-.21-1-.41-1.51-.63L200,42.91c-.12,0-.23-.17-.43-.08.07.16.12.32.19.48l3.72,8.43a11.51,11.51,0,0,1,.59,1.4h-.31l-2.58-.41-3.49-.55L194,51.6a8.94,8.94,0,0,0-1.07-.13,1.16,1.16,0,0,0,.32.49c1.2,1.51,2.42,3,3.63,4.51l3.08,3.86a14.15,14.15,0,0,1-2.06.26c-.9.12-1.81.19-2.72.29l-2.79.32-2.79.29c-.27,0-.54.08-.86.13a.8.8,0,0,0,.31.32l8.72,6.36c-.1.25-.36.25-.55.33l-9.49,3.68a1.32,1.32,0,0,0-.43.21,1.52,1.52,0,0,0,.6.29c1.21.48,2.42.94,3.63,1.41,1.76.68,3.53,1.36,5.28,2a.41.41,0,0,0,.53-.11,3.14,3.14,0,0,1,1.09-.87.62.62,0,0,0,.42-.8c0-.14,0-.29-.08-.41V71a.66.66,0,0,0,.08-.34c0-.46.1-.92.12-1.38a7.17,7.17,0,0,0,.12-1.31,12.47,12.47,0,0,0,.36-1.82c0-.17.1-.34.14-.52.2-.86.45-1.7.72-2.54l.53-1.58a2.13,2.13,0,0,0,.16-.25l.53-1.2c.2-.46.41-.91.62-1.37a2.13,2.13,0,0,0,.16-.25c.37-.71.77-1.41,1.2-2.08a1.09,1.09,0,0,0,.26-.47l.5-.69,1.29-1.77a13,13,0,0,0,1.14-1.32l1.86-1.84.46-.48a9.81,9.81,0,0,0,1.21-1l1.65-1.2a5.33,5.33,0,0,0,.82-.59l1.66-1,1.15-.65,1.81-.81,1.15-.5a9.6,9.6,0,0,0,1.42-.52,2.29,2.29,0,0,0,.36-.07c.69-.2,1.38-.42,2.09-.58A1.4,1.4,0,0,0,222.92,42.66ZM246,98.15l-2.64,1.45c-.09.05-.17.1-.17.22a7.84,7.84,0,0,0-.38,2.88.44.44,0,0,0,.21.41l1.66,1.34,5.23,4.21c.14.11.25.26.49.27-.06-.41-.11-.81-.17-1.21l-.69-4.39c-.18-1.19-.37-2.37-.55-3.55-.1-.67-.19-1.33-.28-2,.19.07.38.13.57.21l4.29,1.9,5,2.19.39.16a.14.14,0,0,0,.11,0,.15.15,0,0,0,0-.11c-.05-.13-.11-.26-.17-.39-1.19-2.7-2.38-5.39-3.56-8.09a12.56,12.56,0,0,1-.73-1.74,1.08,1.08,0,0,1,.18,0l4.82.74c2,.31,3.92.63,5.89.93.08,0,.19.07.27-.08-.11-.14-.21-.29-.33-.43l-3.51-4.37c-.81-1-1.62-2-2.41-3a.9.9,0,0,0-.76-.4,5.36,5.36,0,0,1-1.38-.21.22.22,0,0,0-.3.13l-.54,1.16-.57,1-1.07,1.83-1.72,2.43A14.09,14.09,0,0,0,252.09,93c-.55.56-1.11,1.12-1.66,1.69l-.64.64-1.42,1.19Zm0-51.24,2.41,1.74,1.37,1.18L252,52.05c.25.29.5.57.74.87a2.22,2.22,0,0,0,.44.48,3.78,3.78,0,0,0,.53.73c.42.61.86,1.2,1.3,1.81s.59,1,.9,1.5a12.88,12.88,0,0,0,.69,1.2,5.28,5.28,0,0,0,.45,1c.24.57.51,1.14.77,1.71a11.57,11.57,0,0,0,.63,1.7.53.53,0,0,0,0,.18c.33,1,.54,1.93.8,2.9l.32,1.8c0,.06,0,.12,0,.18a22.76,22.76,0,0,1,.27,2.33,4.85,4.85,0,0,0,.08.53v3.11l-.12,1a.48.48,0,0,0,.07.35c.31.38.42.88.71,1.28a3.72,3.72,0,0,0,.33.77,7.79,7.79,0,0,1,.34.72c.2.53.4,1.07.59,1.61a2.88,2.88,0,0,1,.18.89c0,.44,0,.89,0,1.33a6.49,6.49,0,0,1-.33,1.86.52.52,0,0,0-.05.35.37.37,0,0,0,.29,0l1.82-.18,3-.32,2.67-.29.3,0c.09,0,.2,0,.26-.13L268.1,82l-7.19-5.27c.16-.21.41-.23.63-.32l9.31-3.61c.18-.07.4-.09.53-.27a1.35,1.35,0,0,0-.48-.24l-4-1.54-5.51-2.13c-.18-.07-.4-.1-.51-.3l3.55-2.59Q267,63.87,269.54,62c.15-.11.35-.18.42-.41l-3.18-.37L263.92,61l-4.55-.5c-.22,0-.43-.09-.65-.13q2.17-2.72,4.36-5.41l2.4-3c.11-.13.26-.25.25-.47l-3.45.53L255.48,53a3,3,0,0,1-.9.11c.09-.23.17-.46.27-.68q2-4.45,4-8.92c.09-.21.17-.41.25-.62a.14.14,0,0,0,0-.11.14.14,0,0,0-.11,0l-.34.14-9.31,4.11a1.71,1.71,0,0,1-.57.21c.07-.5.15-1,.22-1.51l.66-4.33c.22-1.43.46-2.85.67-4.27a4,4,0,0,0,.13-1,1.73,1.73,0,0,0-.61.41l-5,4.05c-.62.49-1.24,1-1.86,1.48a.78.78,0,0,0-.31.68c0,.56,0,1.12,0,1.69s-.17.6.59.91c.09,0,.17.12.25.16.74.37,1.45.78,2.14,1.21A3.48,3.48,0,0,0,246,46.91Zm-39.34,81.62v-.24c0-.2,0-.4,0-.6s0-.28-.3-.24l-.59.13c-.85.18-1.71.36-2.54.62-.66.21-1.3.47-2,.68a9.44,9.44,0,0,0-2.87,1.44,3,3,0,0,0-1,1.32,1.46,1.46,0,0,0,.44,1.75,3.38,3.38,0,0,0,1.44.75c.53.14,1.08.2,1.62.3a32.58,32.58,0,0,0,3.25.46,14.84,14.84,0,0,1,1.63.22,9,9,0,0,0,2,.26c.84,0,1.67.09,2.5.16,1.19.12,2.38.24,3.57.43.92.14,1.86.18,2.79.26l2.07.18c1.07.09,2.14.23,3.21.27,1.26.06,2.53,0,3.79,0,1.42,0,2.85-.12,4.27,0s2.85,0,4.28.12c.2,0,.4,0,.6,0l2.5-.14c1.52-.08,3.05,0,4.58-.11,1.34-.06,2.68-.05,4-.11,1,0,2.07-.06,3.11-.15.81-.08,1.62-.14,2.42-.28a4.24,4.24,0,0,0,2.47-1.22,12,12,0,0,0,1-1.22,1.73,1.73,0,0,0,.19-1.84,4.1,4.1,0,0,0-2.24-2.13,24.33,24.33,0,0,0-2.73-1,13.24,13.24,0,0,1-1.93-.74,5.16,5.16,0,0,0-.74-.29c-.23-.06-.44-.22-.73-.17a14.38,14.38,0,0,0-.14,2.17l-.28,1.45c-.23.3-.45.59-.89.54a7.38,7.38,0,0,0-1.75.18,22.65,22.65,0,0,1-2.48.27,9.93,9.93,0,0,0-1.63.19l-.42.07a9.92,9.92,0,0,0-1.62.25c-.52.16-1.1,0-1.6.33a.62.62,0,0,1-.24,0c-1,0-1.91.07-2.87.06s-1.82-.08-2.74-.12a.51.51,0,0,1-.33-.39,6.94,6.94,0,0,1-.23-3.29,6.38,6.38,0,0,1,.95-2.47c.13-.06.19-.2.28-.31l.34-.35c.1-.1.2-.2.29-.31s.26-.17.34-.31a.64.64,0,0,0-.44-.06,13.1,13.1,0,0,1-1.4,0c-.32,0-.64-.08-1-.09-.82,0-1.62.14-2.44.14-.14,0-.21.1-.21.24a7.94,7.94,0,0,0,0,1.09c0,.26,0,.53,0,.79a13.07,13.07,0,0,1,0,1.77,4.49,4.49,0,0,0,0,1,1,1,0,0,0-.05.24c0,.14-.05.23-.2.25a5.59,5.59,0,0,1-1.08.13,2.09,2.09,0,0,0-.61,0,3.45,3.45,0,0,1-.85.08l-2.56,0-3.71.1c-.63,0-1.27,0-1.89,0-1.32.14-2.64.07-4,.2-.64.06-1.3,0-1.94,0a2.44,2.44,0,0,1-1-.16L208,131a2.74,2.74,0,0,1-1-1.09h0ZM240,125.61c0,.11.09.23,0,.36l-.86-.44c-.38-.19-.75-.39-1.14-.56a3.36,3.36,0,0,0-2.21-.16,7.46,7.46,0,0,0-2.87,1.43,4.18,4.18,0,0,0-1.47,1.9,6.52,6.52,0,0,0-.19,3.25.13.13,0,0,1,0,.06.3.3,0,0,0,.31.25,10,10,0,0,0,1.64,0c.55-.06,1.1-.08,1.64-.15l4.11-.51c.71-.09,1.42-.13,2.13-.19l1.82-.15a8.55,8.55,0,0,1,2.42-.13c.28,0,.4-.08.44-.37a1.07,1.07,0,0,0,0-.31,8.22,8.22,0,0,1,.07-1.57c0-.78.13-1.54.17-2.31.06-1.16.1-2.32.16-3.48,0-.46,0-.93.09-1.39s.12-1.22.15-1.83c0-.85.11-1.7.17-2.55,0-.45.08-.89.07-1.34a21.56,21.56,0,0,1,.22-2.79,2.33,2.33,0,0,0,0-.37c0-.11.06-.24-.07-.36l-.21,0c-1-.11-2-.1-3.05-.11a5.21,5.21,0,0,1-.79,0,8.17,8.17,0,0,0-1.64-.1,2.3,2.3,0,0,1-.37,0l-3.09-.31c-.12,0-.2,0-.18.16l.21,1.76v1.09c0,.94.05,1.87,0,2.8-.07,1.34-.09,2.68-.14,4q0,1.22-.12,2.43a.35.35,0,0,0,.21.39A10.33,10.33,0,0,1,240,125.61Zm-21.92,1c-.16-.1-.36-.14-.46-.3a3.5,3.5,0,0,0-1.34-1,6.32,6.32,0,0,0-3.6-.92,7,7,0,0,0-.9.13,3.66,3.66,0,0,0-2.21,1.08,1.45,1.45,0,0,1-.23.19,1.77,1.77,0,0,0-.69,1.18,6.4,6.4,0,0,0-.11,1,3.14,3.14,0,0,0,.79,2.24.54.54,0,0,0,.41.23c.77,0,1.54.08,2.31.07,1,0,2.08-.08,3.11-.13a1.93,1.93,0,0,0,.42-.06,5.13,5.13,0,0,1,1.46-.13c.61,0,1.22,0,1.83,0s1.09-.11,1.64-.15c1-.08,1.9-.19,2.86-.18.67,0,1.34.1,2,.12.42,0,.42,0,.39-.38,0-.24,0-.48,0-.73,0-.71,0-1.42,0-2.13s-.1-1.59-.09-2.38c0-1.35,0-2.69-.09-4,0-.47-.05-.93-.06-1.4a31.41,31.41,0,0,1-.08-3.36c.07-1.18-.06-2.35-.08-3.53,0-.31-.08-.36-.4-.42a9.25,9.25,0,0,0-1.58-.09c-.79,0-1.59,0-2.38-.06-1.28-.07-2.55-.18-3.84-.18l-1.34,0a5.91,5.91,0,0,0-1,0c-.11,0-.23,0-.23.12a2.63,2.63,0,0,0,.06.48c.19,1.1.37,2.2.58,3.3.09.43.08.88.18,1.32.17.81.28,1.64.4,2.46s.2,1.61.34,2.41.3,1.85.38,2.78a.65.65,0,0,0,.25.52,6.87,6.87,0,0,1,1.2,1.21,3.64,3.64,0,0,1,.36.49.45.45,0,0,1,0,.41l-.14,0,0,0ZM259,34.83l.41-.26a9.54,9.54,0,0,1,1.32-.75,17.3,17.3,0,0,1,3.2-1,19.31,19.31,0,0,1,3.21-.33,19.11,19.11,0,0,1,2.93,0c.47,0,.93.08,1.4.1a9,9,0,0,1,1.92.32,35.19,35.19,0,0,1,4.38,1.47,7.42,7.42,0,0,1,1.19.61c.52.32,1,.62,1.57.95a11.77,11.77,0,0,1,2,1.32,3.11,3.11,0,0,0,.47.29.24.24,0,0,0,.23,0,6.39,6.39,0,0,0-.24-1.73c-.1-.35-.22-.7-.33-1a40.78,40.78,0,0,0-1.5-4c-.28-.63-.64-1.22-1-1.82a20.92,20.92,0,0,0-2.11-3.13c-.66-.83-1.34-1.64-2-2.45a37.29,37.29,0,0,0-4.13-4.3c-1-.84-1.94-1.69-2.91-2.52a26.89,26.89,0,0,0-2.74-2.14,3,3,0,0,1-.34-.25A16.73,16.73,0,0,0,264.27,13a15.23,15.23,0,0,0-1.74-1.13c-.72-.37-1.43-.77-2.15-1.15a23,23,0,0,0-3-1.34l-.68-.26c-1.17-.46-2.34-.92-3.54-1.3-.6-.18-1.21-.32-1.8-.54a11.76,11.76,0,0,0-1.93-.54,7.93,7.93,0,0,1-1.28-.4A5.36,5.36,0,0,0,247,6c-.64-.11-1.28-.18-1.93-.25-.08,0-.2-.06-.26.1l.12.19c1,1.53,2.1,3.05,3.14,4.58a47.73,47.73,0,0,1,3.44,6A38.61,38.61,0,0,1,253,20.44c1.12,3.11,2.28,6.22,3.19,9.4.4,1.39.9,2.75,1.21,4.16,0,.19,0,.41.16.58a3.68,3.68,0,0,0,.18,1.11A10.1,10.1,0,0,0,259,34.83Zm-60.6.13a1.52,1.52,0,0,0,.53-.29,21.54,21.54,0,0,1,5.82-2.74,27.79,27.79,0,0,1,4-.75,26.17,26.17,0,0,1,4-.12,12.33,12.33,0,0,1,2.7.41c1,.26,1.87.67,2.81,1a11.52,11.52,0,0,1,2.82,1.43,7.82,7.82,0,0,0,.72.45c.11.06.2.15.36.1a2.53,2.53,0,0,0,.12-.33,35.09,35.09,0,0,1,1.47-3.93c.58-1.38,1.29-2.71,1.95-4.06.91-1.88,1.86-3.74,2.87-5.57.48-.85,1-1.7,1.46-2.54.63-1,1.29-2.07,1.91-3.12A34.36,34.36,0,0,1,234,11.61c.33-.43.68-.87,1-1.33,1-1.56,2.11-3,3.24-4.5.06-.08.16-.14.06-.3-1.2,0-2.42,0-3.64.06-.42,0-.85.08-1.27.07a12.57,12.57,0,0,0-2.13.16,21.06,21.06,0,0,0-3.13.78c-1.18.37-2.33.83-3.49,1.28-.68.26-1.38.48-2.05.77a36,36,0,0,0-4,2,26.25,26.25,0,0,0-2.61,1.8c-.67.5-1.31,1-1.95,1.56a29.29,29.29,0,0,0-3.21,3c-.89,1-1.75,2-2.67,2.93s-1.56,1.77-2.36,2.64c-.38.41-.74.86-1.09,1.31s-.88,1.21-1.29,1.84c-.7,1.08-1.35,2.18-2,3.29L200,31.34a29.09,29.09,0,0,0-1.75,3.54s-.07.1,0,.14S198.33,35,198.35,35Zm59,.8c0-.11,0-.22,0-.31-.16-.61-.3-1.23-.5-1.83-.55-1.67-1.11-3.35-1.69-5s-1.2-3.33-1.81-5c-.32-.88-.63-1.76-1-2.63s-.77-2-1.26-3c-.59-1.18-1.16-2.37-1.82-3.51-.51-.88-1-1.77-1.57-2.6-.89-1.29-1.84-2.53-2.76-3.8A21.75,21.75,0,0,1,243.49,6a.53.53,0,0,0-.46-.31c-.75-.09-1.5-.06-2.26-.1l-1.09-.08a.43.43,0,0,0-.41.21c-.24.37-.48.75-.74,1.11-.52.75-1.08,1.48-1.58,2.25q-1.22,1.83-2.38,3.69-1.57,2.46-3.13,4.95c-.59,1-1.17,1.91-1.73,2.87-1,1.65-1.78,3.38-2.67,5.08-.72,1.38-1.4,2.79-2.13,4.18A29,29,0,0,0,223,34.31c0,.11-.13.22,0,.33.7-.36,1.42-.69,2.11-1.09.42-.25.86-.45,1.3-.67s1-.46,1.48-.71a17.16,17.16,0,0,1,2.46-1.05c.52-.17,1-.34,1.56-.53a23.84,23.84,0,0,1,3.34-.9c1.26-.26,2.53-.41,3.8-.56a10.44,10.44,0,0,1,2.62,0,41.27,41.27,0,0,1,4.89,1,39.12,39.12,0,0,1,4.32,1.45,12.23,12.23,0,0,1,2.29,1.14l2.8,1.85a5.33,5.33,0,0,1,.92.79A1.2,1.2,0,0,0,257.34,35.76Zm-11.79,43a.86.86,0,0,0-.09.49c0,.28,0,.36.31.41a21,21,0,0,1,2.56.78c.89.29,1.73.72,2.61,1a17.65,17.65,0,0,1,2.76,1.27,9,9,0,0,0,2.05.93c.95.27,1.92.52,2.88.75a3.77,3.77,0,0,0,1.34.06,1,1,0,0,0,.76-.54,3.22,3.22,0,0,0,.21-.51,6,6,0,0,0,.29-2.1,7.82,7.82,0,0,0-.38-2.4A9.81,9.81,0,0,0,259.24,76a.85.85,0,0,1-.2-.61c0-1.09.11-2.19.1-3.29a28.69,28.69,0,0,0-.38-4.43,31.72,31.72,0,0,0-1.36-5.17,29.85,29.85,0,0,0-5.85-9.93,31.34,31.34,0,0,0-5.3-4.66,34.3,34.3,0,0,0-3.39-2c-.08,0-.17-.12-.3,0V48c0,3,0,6,0,9,0,1.49,0,3,0,4.45,0,2.3,0,4.59,0,6.89s0,4.56,0,6.84a.4.4,0,0,0,.27.41A3,3,0,0,1,244.39,77c.06.14.17.13.31.07a.4.4,0,0,1,.61.26.73.73,0,0,1,.07.29c0,.34.2.43.47.54a9.06,9.06,0,0,0,1.47.38,16.51,16.51,0,0,1,3.15.93l1.72.79a37.78,37.78,0,0,0,4.06,1.48l1.05.32c.26.07.32,0,.41-.21a2.47,2.47,0,0,0,.1-.29c.29-1,.57-2,.77-3.07a8.68,8.68,0,0,1,.27-1,.48.48,0,0,1,.12,0,5.72,5.72,0,0,1,1.21,2.56,4.65,4.65,0,0,1-.17,2.1,1.05,1.05,0,0,1-1,.84,4.31,4.31,0,0,1-1.92-.22c-.48-.18-.95-.38-1.41-.57a23,23,0,0,0-2.5-1,3.66,3.66,0,0,1-.46-.18L250.21,80A18.44,18.44,0,0,0,245.55,78.74Zm-11.9,26.58c-.12.28-.19.44-.25.61q-1.69,4.36-3.4,8.75c0,.11-.08.23-.13.34a.58.58,0,0,1-.54.33.54.54,0,0,1-.54-.32,2.66,2.66,0,0,1-.16-.39L226,107.77l-.86-2.22c-.06-.15-.15-.16-.25,0l-.11.15-3.39,4.63c0,.08-.15.15-.09.28.33,0,.68.07,1,.08.73,0,1.46,0,2.2,0a3.51,3.51,0,0,1,.78.12.69.69,0,0,1,.56.69c0,.67.09,1.34.14,2,0,.14,0,.29,0,.43,0,.77,0,1.55,0,2.32.06,1.32.12,2.64.25,4a31.8,31.8,0,0,1,.07,3.78c0,.16,0,.33.07.49a3.75,3.75,0,0,0,.47,0,6.94,6.94,0,0,1,1.7-.1c.82,0,1.63,0,2.45,0a1,1,0,0,0,.24,0,5,5,0,0,1,1.64-.06,1.71,1.71,0,0,0,.77-.12,6.76,6.76,0,0,1,2.85-.53c.14,0,.22,0,.23-.2s0-.32,0-.49c0-1.3,0-2.6,0-3.9,0-.63,0-1.26-.05-1.89s.09-1.22,0-1.83a22.81,22.81,0,0,0,0-2.48c0-.24-.06-.49-.08-.73s0-.77-.06-1.15c0-.21.05-.25.24-.26l.75,0a.17.17,0,0,0,0-.21Zm7.5-71.07h.08c0-1.2,0-2.4,0-3.6,0-.15-.09-.2-.23-.22a13,13,0,0,0-2.07,0,30.56,30.56,0,0,0-6.9,1.12c-.41.1-.81.25-1.22.39a.17.17,0,0,0-.11.24.87.87,0,0,0,.07.17c.91,2.37,1.83,4.73,2.75,7.1a.21.21,0,0,0,.18.17l.29-.37,3.7-5.07,2-2.76a.64.64,0,0,1,.75-.26.6.6,0,0,1,.39.57c0,.38.08.76.13,1.15S241.1,33.79,241.15,34.25Zm0,45.72c-.39,0-.78,0-1.17,0a.94.94,0,0,0-.69.34.48.48,0,0,0,0,.66,1,1,0,0,0,.81.47,3.23,3.23,0,0,0,.54,0c.65-.1,1.3-.06,1.95-.12l.48-.06a3.47,3.47,0,0,0,.46-.13,1.72,1.72,0,0,0,.38-.2,2.25,2.25,0,0,0,.39-.3,3.18,3.18,0,0,0,.26-.35.42.42,0,0,1,.14.29c0,.12,0,.24.13.33a.11.11,0,0,0,.1,0,.6.6,0,0,0,.06-.23c0-.83.09-1.66.13-2.49,0-.23,0-.45,0-.67a.17.17,0,0,0-.1-.13c-.09,0-.16,0-.19.09a1.11,1.11,0,0,0-.08.35c0,.23,0,.45,0,.67a.1.1,0,0,1-.05.1c-.07,0-.09,0-.1-.1a2.42,2.42,0,0,1,0-.25,1.77,1.77,0,0,0-.38-1A6.07,6.07,0,0,0,242.89,76c-.09-.07-.19-.16-.35-.08,0,.1,0,.22,0,.34s0,.25,0,.37.19.15.12.29a.5.5,0,0,1-.36,0A5.65,5.65,0,0,0,240,76.6a1.47,1.47,0,0,0-.59.11.44.44,0,0,0-.28.43.7.7,0,0,0,.18.44,1.61,1.61,0,0,0,.83.49l.56.17a6.26,6.26,0,0,1-1.13.08,2.18,2.18,0,0,0-.72.12.49.49,0,0,0-.33.47.66.66,0,0,0,.48.7,3.17,3.17,0,0,0,1,.19c.27,0,.53,0,.8,0A.32.32,0,0,1,241.13,80Zm-52.44,3.45a14.16,14.16,0,0,0,2,.26c.93.12,1.86.17,2.78.3.69.09.59.15.72-.59,0-.16,0-.32,0-.49a9.69,9.69,0,0,1,.16-1.08,23.48,23.48,0,0,1,.9-3c0-.09.15-.19,0-.32C194.21,79.26,189.11,83,188.69,83.42Zm38.67-50.07c-.19.07-.39.13-.59.22-1,.43-2,.89-3.07,1.3a5.86,5.86,0,0,1-1.78.61c.07.1.1.18.14.24l2.74,3.74a.26.26,0,0,0,.27.14c.78-2.05,1.57-4.11,2.35-6.17C227.43,33.42,227.4,33.4,227.36,33.35Zm15,77.48c.08-.15,0-.28,0-.42a14.64,14.64,0,0,1-.22-2.19c0-1.16,0-2.32,0-3.47,0-.45,0-.9,0-1.35a10,10,0,0,1,.22-3.14.58.58,0,0,0,0-.2l-1.69.72c-.19.08-.23.19-.19.4.08.54.15,1.08.26,1.62s.06.93.13,1.39a18.09,18.09,0,0,1-.28,6.31c0,.18,0,.25.21.27.47,0,.93.08,1.4.11A.43.43,0,0,0,242.4,110.83Zm-42-12.54a2.52,2.52,0,0,0-.41-1.54,2.74,2.74,0,0,0-1.53-1.3,2.05,2.05,0,0,1,.74,0,.34.34,0,0,0,.33-.11c.08-.09.17-.2.1-.32s-.16-.11-.27-.09-.52.1-.78.12a11.39,11.39,0,0,0-2.37.51,1.12,1.12,0,0,0-.51.31s0,.08,0,.12l.06,0,.29,0a1.54,1.54,0,0,1,.3,0c.09,0,.2-.06.26,0a.28.28,0,0,1-.17.24,2.73,2.73,0,0,0-1.27,1.43.82.82,0,0,0,.6,1.17,1.85,1.85,0,0,0,1.65-.72.14.14,0,0,0-.08-.23c-.17-.07-.35-.11-.52-.18a.22.22,0,0,1-.11-.14.24.24,0,0,1,.09-.15.6.6,0,0,1,.58-.1l.45.16c.1,0,.1.09.1.18,0,.29,0,.3.32.32a1.37,1.37,0,0,1,.8.3A.87.87,0,0,1,200.39,98.29Zm2.64-5.6h-.2l-4,.62c-.19,0-.45-.06-.55.14s.08.39.14.58,0,.15.07.23a.21.21,0,0,0,.26.19l.73,0a1,1,0,0,1,.75.35.45.45,0,0,1-.1.68c-.1.07-.24,0-.29.2a.5.5,0,0,0,.08.14,2.78,2.78,0,0,1,.9,1.49s0,.12.09.13.12-.08.15-.15L203,93A2.3,2.3,0,0,0,203,92.69Zm-3.8,7.69a5.1,5.1,0,0,0-.16-1.08,1.2,1.2,0,0,0-1.11-1l-.05,0a.36.36,0,0,0-.41.45,3.85,3.85,0,0,0,.2.57,1.77,1.77,0,0,1,.16.88,2.9,2.9,0,0,0,.2,1.13.55.55,0,0,0,.56.38.49.49,0,0,0,.45-.34A2.37,2.37,0,0,0,199.23,100.38Zm-2.7-15.46a2.51,2.51,0,0,0,0,.3c0,.39,0,.77,0,1.15s.12.76.18,1.14a.09.09,0,0,0,0,0h.06a19,19,0,0,0,1.87-2.39Zm-1.1,8.27c-.18-.62-.36-1.2-.54-1.78-.06-.18-.17-.19-.31,0l-1.56,2c-.06.06-.17.13-.06.27C193.76,93.46,194.59,93.39,195.43,93.19Zm1.78,5.56a3.08,3.08,0,0,1-1.31.49c0,.32.06.6.12.87a2.69,2.69,0,0,0,.24.69.49.49,0,0,0,.88.13,3.48,3.48,0,0,0,.28-.39.39.39,0,0,0,.05-.3C197.39,99.76,197.3,99.28,197.21,98.75Zm62-19.73a.65.65,0,0,0-.15.34c-.14.67-.34,1.33-.54,2-.07.23-.15.46-.22.7s0,.23.18.23a4.9,4.9,0,0,0,.54,0,.38.38,0,0,0,.26-.14,1.69,1.69,0,0,0,.25-.48,3.81,3.81,0,0,0,0-2.09A.73.73,0,0,0,259.23,79Zm-58.44,21a1.49,1.49,0,0,0,0-.24,2.64,2.64,0,0,0-.89-1.42c-.09-.09-.27,0-.44.1a.25.25,0,0,0-.07.32,3,3,0,0,1,.3,1.24c0,.16,0,.32,0,.48a.29.29,0,0,0,.24.31.45.45,0,0,0,.58-.17A.85.85,0,0,0,200.79,100.06Zm16.49,2.62c0,.35,0,.57.05.79,0,.52.12,1,.18,1.57.14,1.3.27,2.59.4,3.88a1.24,1.24,0,0,0,.19.61c0-.24,0-.45,0-.65-.1-1.39-.17-2.79-.37-4.18A11.45,11.45,0,0,0,217.28,102.68Z" transform="translate(-14.65 -3.8)"/><path class="cls-2" d="M40.09,114.68V97.76c0-1.77-.05-3.54-.07-5.31V92c0-.24,0-.26.29-.27h.13c3.54,0,7.08,0,10.63,0a14.37,14.37,0,0,1,4.54.81A9.41,9.41,0,0,1,61.82,99a16.16,16.16,0,0,1,.65,3.65,28.52,28.52,0,0,1,0,4,15.11,15.11,0,0,1-.79,4A6.87,6.87,0,0,1,57.53,115c-.35.14-.72.26-1.08.39a.18.18,0,0,0-.1.2.16.16,0,0,0,.1.14l.41.13a7,7,0,0,1,4.71,4.49,14,14,0,0,1,.77,3.45c.15,1.3.1,2.6.14,3.9.05,1.63.07,3.26.23,4.88a24.75,24.75,0,0,0,.65,3.72,5,5,0,0,1,.11,1.27c0,.18-.07.24-.27.24H55.31c-.52,0-.54.11-.72-.56a24.24,24.24,0,0,1-.7-3.47,67.59,67.59,0,0,1-.37-6.82c0-1.1-.05-2.2-.11-3.3a5.89,5.89,0,0,0-.62-2.4,3.44,3.44,0,0,0-2-1.78,4.67,4.67,0,0,0-1.74-.19.14.14,0,0,0-.15.16c0,.14,0,.28,0,.42v13.81c0,1.24,0,2.48,0,3.72a.7.7,0,0,1,0,.25.18.18,0,0,1-.15.16H40.24a.19.19,0,0,1-.21-.18c0-.14,0-.29,0-.43.13-5.17,0-10.34.07-15.51C40.1,119.33,40.09,117,40.09,114.68Zm8.8-9.44V111c0,.15,0,.24.21.24.38,0,.77,0,1.15,0a3.24,3.24,0,0,0,2.8-2,6,6,0,0,0,.37-1.16,15.17,15.17,0,0,0,.08-5,5.8,5.8,0,0,0-.46-1.64,3.38,3.38,0,0,0-1.53-1.68A4.64,4.64,0,0,0,49,99.34c-.05,0-.11.07-.12.11s0,.32,0,.49Z" transform="translate(-14.65 -3.8)"/><path class="cls-2" d="M89.2,114.8c0,2.75,0,5.5,0,8.25a42.78,42.78,0,0,1-.37,5.3,17.94,17.94,0,0,1-.94,4,9.65,9.65,0,0,1-2.44,3.69,8.15,8.15,0,0,1-3.37,1.88,14.35,14.35,0,0,1-2.75.52,19,19,0,0,1-2.26.08,16.2,16.2,0,0,1-3.91-.57,8.46,8.46,0,0,1-5.69-5.11,14.75,14.75,0,0,1-1-3.51,40.23,40.23,0,0,1-.52-6.57q0-7.61,0-15.21c0-1.55,0-3.1.18-4.64a23.58,23.58,0,0,1,1-5.33,10.31,10.31,0,0,1,1.65-3.17A7.94,7.94,0,0,1,71.91,92a12.75,12.75,0,0,1,3.16-.86,17.92,17.92,0,0,1,4.33-.09,12.44,12.44,0,0,1,3.54.84,8.29,8.29,0,0,1,4.2,3.74,12.5,12.5,0,0,1,1.33,3.65,32.5,32.5,0,0,1,.63,5c.19,3.17.08,6.35.11,9.53,0,.32,0,.65,0,1Zm-14.32-.07v.67l0,10.14a17.85,17.85,0,0,0,.15,2.07,7.11,7.11,0,0,0,.29,1.37,2.14,2.14,0,0,0,2.44,1.65,1.89,1.89,0,0,0,1.53-.88,3.83,3.83,0,0,0,.49-1.18,12.91,12.91,0,0,0,.35-2.84q.06-1.77.06-3.54,0-7.51,0-15,0-1.74-.06-3.48a13.72,13.72,0,0,0-.25-2.3,4.87,4.87,0,0,0-.47-1.44A2,2,0,0,0,78,98.88a2.13,2.13,0,0,0-2.47,1.32,5.17,5.17,0,0,0-.21.63,11,11,0,0,0-.34,2.48c0,.79,0,1.59,0,2.38C74.88,108.7,74.88,111.72,74.88,114.73Z" transform="translate(-14.65 -3.8)"/><path class="cls-2" d="M152.26,120.52a.61.61,0,0,1,.45-.11h7.76l.3,0a.16.16,0,0,1,.16.15v.19c0,1,0,2-.06,3s-.1,1.87-.18,2.8a22,22,0,0,1-1.22,5.83A9.88,9.88,0,0,1,158,135.1a8.58,8.58,0,0,1-5,3.08,15.71,15.71,0,0,1-5,.29,13.26,13.26,0,0,1-2.92-.58,8.47,8.47,0,0,1-5.52-5.37,18.47,18.47,0,0,1-.88-3.42,46.91,46.91,0,0,1-.51-7.49V107.93c0-1.55,0-3.1.17-4.64a24.79,24.79,0,0,1,.95-5.46c.12-.4.27-.81.43-1.2a8.51,8.51,0,0,1,5-4.84,12,12,0,0,1,3.56-.78A16.84,16.84,0,0,1,151,91a11.55,11.55,0,0,1,5.06,1.62,8,8,0,0,1,3.05,3.4,14.2,14.2,0,0,1,1.09,3.36,31.66,31.66,0,0,1,.51,4.24c.05,1,.1,2,.09,3,0,.35,0,.36-.39.37h-7.69l-.43,0a.14.14,0,0,1-.15-.15c0-.16,0-.33,0-.49,0-1.44,0-2.89-.11-4.33a9.71,9.71,0,0,0-.25-1.51,1.9,1.9,0,0,0-.09-.29,2.13,2.13,0,0,0-3.07-1.2,2,2,0,0,0-.85.93,4.74,4.74,0,0,0-.39,1.28,17.85,17.85,0,0,0-.23,2.43c0,.73,0,1.46,0,2.2q0,9.07,0,18.14a27.94,27.94,0,0,0,.13,3.42,7.35,7.35,0,0,0,.36,1.66,2.58,2.58,0,0,0,.36.7,1.86,1.86,0,0,0,.93.67,2.71,2.71,0,0,0,1.44,0,1.72,1.72,0,0,0,1.2-.95,5.62,5.62,0,0,0,.49-1.7,28.71,28.71,0,0,0,.22-3.59c0-1.12,0-2.24,0-3.36Z" transform="translate(-14.65 -3.8)"/><path class="cls-2" d="M15.39,114.73c0-4.32,0-8.64,0-13,0-3.07,0-6.15-.07-9.22,0-.94-.15-.81.79-.81,3.3,0,6.6,0,9.9,0a19.57,19.57,0,0,1,2.86.14A11.47,11.47,0,0,1,32.58,93a8.12,8.12,0,0,1,3.61,3.76,12.93,12.93,0,0,1,1.08,3.36,32.3,32.3,0,0,1,.49,5.64,41,41,0,0,1-.13,4.15A18.71,18.71,0,0,1,36.55,115a9.52,9.52,0,0,1-1.88,3.11,8.62,8.62,0,0,1-4.15,2.44,14,14,0,0,1-3.86.5H24.47c-.26,0-.27,0-.28.29s0,.28,0,.42c0,3.59,0,7.17,0,10.75,0,1.53,0,3.06,0,4.58v.37c0,.23,0,.27-.29.27h-8a3,3,0,0,1-.42,0,.18.18,0,0,1-.19-.19c0-.27,0-.53,0-.8,0-1.36.07-2.72.07-4.09C15.4,126.7,15.39,120.71,15.39,114.73Zm8.8-8.32v6.72c0,.14.06.23.22.22.34,0,.69,0,1-.07a3.38,3.38,0,0,0,2.93-2.16,7.79,7.79,0,0,0,.48-2.07,27,27,0,0,0,.1-3.48,15,15,0,0,0-.22-2.49,6.21,6.21,0,0,0-.59-1.78,3.2,3.2,0,0,0-2-1.6,7.15,7.15,0,0,0-1.45-.21c-.55,0-.52,0-.52.51Z" transform="translate(-14.65 -3.8)"/><path class="cls-3" d="M136.73,67.08V46.86c0-.54,0-.54.54-.55h4.34a.35.35,0,0,1,.37.25c.24.59.48,1.17.71,1.75l2.37,5.82c.79,1.92,1.55,3.85,2.36,5.76.56,1.35,1.13,2.7,1.61,4.09a2.44,2.44,0,0,0,.21.43.11.11,0,0,0,.11,0,.15.15,0,0,0,.08-.08.36.36,0,0,0,0-.11,12.24,12.24,0,0,0-.08-1.71,3.37,3.37,0,0,1,0-.55c0-3,0-6.07,0-9.1,0-1.47,0-2.93,0-4.4,0-.53-.07-1-.08-1.58s0-.61.59-.61h6.35l.43,0a.2.2,0,0,1,.19.2c0,.12,0,.24,0,.37,0,.93,0,1.87,0,2.81-.15,2.6-.06,5.2-.06,7.81q0,12.7,0,25.41c0,1.28.08,2.56.1,3.84,0,.25,0,.49,0,.74s-.07.3-.34.32h-4.21a.52.52,0,0,1-.56-.37c-.37-.9-.75-1.8-1.13-2.7-.61-1.44-1.22-2.89-1.82-4.33s-1.15-2.74-1.72-4.11-1.17-2.77-1.75-4.16c-.32-.79-.62-1.59-.93-2.39-.11-.29-.2-.38-.28-.32s-.1.26-.08.39a6,6,0,0,1,.09,1.46c0,4,0,7.9,0,11.85,0,1.3.11,2.6.08,3.9v.55a.22.22,0,0,1-.24.22h-6.6c-.63,0-.62,0-.62-.65Z" transform="translate(-14.65 -3.8)"/><path class="cls-3" d="M97.75,66.65c0,1.67,0,3,0,4.27,0,1.92-.06,3.83-.13,5.74a24.92,24.92,0,0,1-.62,4.7,9.83,9.83,0,0,1-1.66,3.77,7.44,7.44,0,0,1-3.51,2.64,13.17,13.17,0,0,1-2.48.59,17.34,17.34,0,0,1-3.6.07,10.87,10.87,0,0,1-3.66-.86,7,7,0,0,1-2.76-2.15,9.41,9.41,0,0,1-1.72-3.54,19.73,19.73,0,0,1-.51-2.76c-.13-1.09-.18-2.18-.26-3.27s-.08-2.28-.08-3.42q0-6.23,0-12.46c0-1,0-2,.12-3a25.77,25.77,0,0,1,.71-4.63A9.82,9.82,0,0,1,79.08,49a7.12,7.12,0,0,1,3.37-2.61A11.74,11.74,0,0,1,86,45.67a14.09,14.09,0,0,1,1.45-.08,14.84,14.84,0,0,1,4.19.71,7.86,7.86,0,0,1,2.59,1.48,8,8,0,0,1,1.61,2,12,12,0,0,1,1.3,3.86c.12.72.22,1.44.33,2.16,0,0,0,.08,0,.12,0,.77.09,1.54.14,2.32C97.8,61.19,97.74,64.1,97.75,66.65ZM89.59,67h0c0-1.26,0-2.53,0-3.79,0-2.14,0-4.27,0-6.41a9.91,9.91,0,0,0-.27-2.11,3.54,3.54,0,0,0-.51-1.24A1.8,1.8,0,0,0,87,52.71,1.83,1.83,0,0,0,85.32,54c0,.15-.11.3-.15.46a9.93,9.93,0,0,0-.35,2.71q0,6.25,0,12.52c0,2.42,0,4.84,0,7.27,0,.61.1,1.21.15,1.82a5,5,0,0,0,.36,1.41,1.8,1.8,0,0,0,1.29,1.19,3.77,3.77,0,0,0,.67,0A1.78,1.78,0,0,0,89,80.21a4.2,4.2,0,0,0,.3-1,14.88,14.88,0,0,0,.25-2.66Z" transform="translate(-14.65 -3.8)"/><path class="cls-3" d="M52.69,67.86c0-3.15,0-5.58,0-8,0-1,.05-2,.13-3a29.13,29.13,0,0,1,.47-3.62,12.78,12.78,0,0,1,1-3,7.49,7.49,0,0,1,4.3-3.93,10.79,10.79,0,0,1,3.51-.69c.32,0,.65-.09,1-.08a14.36,14.36,0,0,1,4.27.6,7.57,7.57,0,0,1,3,1.74,8.24,8.24,0,0,1,1.44,1.88A11.79,11.79,0,0,1,73,53.08c.22.93.32,1.88.46,2.82,0,.06,0,.12,0,.18,0,1.18.12,2.36.16,3.54.16,4.09,0,8.18.07,12.27,0,1.6,0,3.21-.13,4.82-.06,1-.16,2-.31,3a17.7,17.7,0,0,1-.74,3.14,8.55,8.55,0,0,1-2.61,3.77,6.62,6.62,0,0,1-1.94,1.13,12.76,12.76,0,0,1-2.66.65,17.25,17.25,0,0,1-3.59.07A10.65,10.65,0,0,1,58,87.55a7.35,7.35,0,0,1-3.43-3.18,11.31,11.31,0,0,1-1.25-3.55c-.18-.94-.3-1.88-.4-2.84-.06-.58-.06-1.17-.11-1.76C52.56,73.19,52.75,70.16,52.69,67.86Zm12.83-.72h0V64c0-2.24,0-4.48,0-6.72a16.62,16.62,0,0,0-.16-1.88A4.94,4.94,0,0,0,65,54a1.91,1.91,0,0,0-1.09-1.17,2.17,2.17,0,0,0-1.66,0,1.56,1.56,0,0,0-.84.76,3.92,3.92,0,0,0-.43,1.2,16,16,0,0,0-.25,2.84V75.33a21.36,21.36,0,0,0,.11,3,13.82,13.82,0,0,0,.26,1.43,2.54,2.54,0,0,0,.41.88,1.64,1.64,0,0,0,1.33.75,3.08,3.08,0,0,0,.43,0,1.69,1.69,0,0,0,1.54-.92,3.92,3.92,0,0,0,.46-1.25,16,16,0,0,0,.25-2.85Z" transform="translate(-14.65 -3.8)"/><path class="cls-3" d="M121.34,67.1c0,3,0,5.9,0,8.85a18.05,18.05,0,0,1-.93,5.39,10,10,0,0,1-1.93,3.43,7.63,7.63,0,0,1-1.78,1.48,9.7,9.7,0,0,1-3.82,1.37,24.76,24.76,0,0,1-3.22.21h-7.82c-.81,0-.76,0-.76-.78s0-1.39,0-2.08c.17-3.84,0-7.69.07-11.54s0-7.69,0-11.54,0-7.7,0-11.54c0-1.06-.07-2.12-.08-3.17s-.1-.86.84-.86h8.73a13,13,0,0,1,3.73.52,8.43,8.43,0,0,1,4.91,3.6A11.33,11.33,0,0,1,120.74,54a25.41,25.41,0,0,1,.52,3.24c.1,1,.1,2.07.1,3.11,0,2.26,0,4.52,0,6.78ZM109,67v13.5c0,.24.1.32.34.33a6.45,6.45,0,0,0,1.7-.15,2.32,2.32,0,0,0,.67-.28A3,3,0,0,0,113,78.68a8.74,8.74,0,0,0,.39-2.33c0-.43,0-.86,0-1.29V58.88a15.19,15.19,0,0,0-.1-2.13,7.66,7.66,0,0,0-.41-1.65,2.69,2.69,0,0,0-1.48-1.55,4,4,0,0,0-1.67-.27c-.79,0-.73-.05-.73.73Z" transform="translate(-14.65 -3.8)"/><path class="cls-3" d="M180.62,77v10.5c0,.26-.16.37-.41.28a2.42,2.42,0,0,1-.49-.23l-2.06-1.19-.33-.17a.46.46,0,0,0-.6.08,9,9,0,0,1-1.87,1.26,9.65,9.65,0,0,1-2.73.81,14,14,0,0,1-3.17.08A9.52,9.52,0,0,1,164.37,87a7.13,7.13,0,0,1-2.46-2.74,12.73,12.73,0,0,1-1.2-3.7c-.19-1.08-.32-2.16-.41-3.26s-.08-2-.12-3c-.18-4.36,0-8.71-.08-13.07.13-1.11.05-2.24.12-3.35a29,29,0,0,1,.72-5.24,12.08,12.08,0,0,1,1.16-2.95A7.3,7.3,0,0,1,165,46.85a9.05,9.05,0,0,1,3.17-1.05,14,14,0,0,1,2.42-.2,12,12,0,0,1,3.89.67A7.59,7.59,0,0,1,177.28,48a12.53,12.53,0,0,1,1,1.06,9,9,0,0,1,1.48,3.19,19,19,0,0,1,.51,2.81c.07.55.06,1.1.13,1.64a26.78,26.78,0,0,1,.1,2.68c0,.15,0,.29,0,.43s-.06.26-.25.27H173c-.19,0-.26-.07-.27-.25s0-.32,0-.48c0-1.06,0-2.12,0-3.18a9.12,9.12,0,0,0-.24-1.87l-.09-.29a1.68,1.68,0,0,0-1.69-1.34,1.85,1.85,0,0,0-2,1.2,3.8,3.8,0,0,0-.25.81,13.15,13.15,0,0,0-.24,2.42c0,6.48,0,12.95,0,19.43a11.87,11.87,0,0,0,.33,3.08,2.57,2.57,0,0,0,.76,1.36,1.38,1.38,0,0,0,.53.29,2.5,2.5,0,0,0,1.62-.05,1.5,1.5,0,0,0,.84-.75,3.33,3.33,0,0,0,.31-.79,7.52,7.52,0,0,0,.22-1.63c0-1.57,0-3.14,0-4.7,0-.13,0-.25,0-.37a.16.16,0,0,0-.16-.15l-.37,0H170.8c-.59,0-.59,0-.6-.62V66.89c0-.14,0-.28,0-.43s.06-.32.31-.34h9.41c.74,0,.69,0,.69.7Z" transform="translate(-14.65 -3.8)"/><path class="cls-2" d="M117.54,114.74q0-8.25,0-16.49c0-1.93,0-3.87-.07-5.8V92c0-.24,0-.26.29-.27s.28,0,.42,0h16.68c.79,0,.67-.1.67.68,0,2.16,0,4.31,0,6.47,0,.16,0,.33,0,.49s-.08.18-.2.18H127c-.71,0-.62-.08-.62.62v9.34c0,.25,0,.27.3.28H133c.85,0,.72-.12.72.75q0,3.68,0,7.33c0,.13,0,.25,0,.37a1.09,1.09,0,0,1,0,.18c0,.09-.06.16-.15.16h-7c-.13,0-.18.06-.18.18a1.21,1.21,0,0,0,0,.19v10.44a1.85,1.85,0,0,0,0,.24.15.15,0,0,0,.13.12h9a.23.23,0,0,1,.22.24v7.45c0,.23-.05.27-.3.28H118.15c-.77,0-.7,0-.69-.69,0-2,.07-3.9.07-5.86Q117.55,123,117.54,114.74Z" transform="translate(-14.65 -3.8)"/><path class="cls-4" d="M83.68,4.55c.08.19.17.37.25.55q2.4,5.91,4.82,11.81c.51,1.24,1,2.48,1.47,3.75a3.39,3.39,0,0,0,.18.39s.07,0,.1,0,.07,0,.07-.07,0-.08,0-.12c0-1.2,0-2.4-.08-3.6,0-.21,0-.41,0-.61,0-1.78,0-3.55,0-5.32,0-2.08,0-4.15-.07-6.23,0-.66,0-.61.56-.61h5.81a3,3,0,0,1,.42,0,.19.19,0,0,1,.12.11,2.29,2.29,0,0,1,0,.37c0,1.18-.08,2.36-.08,3.54q0,14.88,0,29.75c0,1.2,0,2.4.08,3.6a1.92,1.92,0,0,1,0,.24c0,.21,0,.23-.26.25h-4l-.26,0c-.09-.18-.18-.36-.26-.55q-2.62-6.27-5.26-12.55c-.45-1.05-.88-2.1-1.27-3.17a3,3,0,0,0-.2-.45s-.06,0-.09,0-.07,0-.08.07v.24c.1,2,.13,3.91.13,5.86,0,3.34,0,6.68,0,10,0,.64.08.61-.57.61h-6c-.24,0-.27,0-.27-.3,0-1,0-2,0-3.05,0-.25,0-.49,0-.73V8.63c0-1.14,0-2.28,0-3.42V4.72c0-.12.07-.18.19-.19h4.21Z" transform="translate(-14.65 -3.8)"/><path class="cls-2" d="M104.78,110q0-8.76,0-17.53c0-.82-.1-.72.69-.72,2.57,0,5.14,0,7.7,0,.56,0,.55,0,.54.52,0,1.54-.06,3.09-.06,4.64q0,14.78,0,29.56a17,17,0,0,1-.74,5.11,10.83,10.83,0,0,1-1.36,2.85,9,9,0,0,1-5.45,3.75,13.33,13.33,0,0,1-4.54.29,12.9,12.9,0,0,1-3.2-.71,9.3,9.3,0,0,1-5.6-5.68,14.2,14.2,0,0,1-.87-3.91c-.09-.9-.09-1.79-.1-2.69l0-6.29c0-.74-.06-.65.65-.65H99.8c.54,0,.54,0,.53.53q0,3.63,0,7.26a10.62,10.62,0,0,0,.17,2.25,3.7,3.7,0,0,0,.31.92,1.89,1.89,0,0,0,1.75,1.13,2.9,2.9,0,0,0,.78-.06,1.71,1.71,0,0,0,1.06-1,4.46,4.46,0,0,0,.37-1.53c0-.49.06-1,.06-1.46C104.79,121.08,104.78,115.54,104.78,110Z" transform="translate(-14.65 -3.8)"/><path class="cls-4" d="M75.3,23.48q0,7.14,0,14.29c0,1.25.06,2.49.09,3.73v.3c0,.64.08.6-.58.6H71.4c-.61,0-.53.05-.76-.49l-2.31-5.52c-1.11-2.62-2.22-5.25-3.31-7.88-.34-.8-.64-1.62-1-2.44-.06-.15-.13-.3-.2-.44s-.07,0-.1,0-.07,0-.07.07,0,.29,0,.43c0,.73.09,1.46.09,2.19,0,3.34,0,6.68,0,10,0,1.2,0,2.4.06,3.61,0,.1,0,.2,0,.3a.15.15,0,0,1-.15.16l-.3,0H57.25a.18.18,0,0,1-.2-.18c0-.14,0-.28,0-.42.08-11.27,0-22.53,0-33.79,0-.91,0-1.83,0-2.75,0-.18,0-.36,0-.54a.17.17,0,0,1,.2-.18h.18c1.33,0,2.65,0,4,0a.46.46,0,0,1,.5.35q1.18,2.94,2.39,5.87c1,2.45,2,4.89,3,7.34.35.87.66,1.75,1,2.62.06.15,0,.44.29.38s.06-.29.06-.44c-.16-3.61-.06-7.21-.09-10.81,0-1.49,0-3-.09-4.46,0-.16,0-.33,0-.49s0-.35.35-.35h6.36c.2,0,.24.05.23.27,0,.73,0,1.46,0,2.2s0,1.22,0,1.83Q75.29,16.14,75.3,23.48Z" transform="translate(-14.65 -3.8)"/><path class="cls-4" d="M125.29,23.43c0-4.71,0-9.41,0-14.11,0-1.22,0-2.44,0-3.66V4.8c0-.25,0-.27.29-.28h8.61a11.16,11.16,0,0,1,3.25.47,7.81,7.81,0,0,1,5.11,4.47,13.3,13.3,0,0,1,.94,3.21,27.12,27.12,0,0,1,.35,4.5c0,4.23,0,8.47,0,12.7a25.13,25.13,0,0,1-.47,5,12.07,12.07,0,0,1-.8,2.56A7.85,7.85,0,0,1,137.05,42a11.23,11.23,0,0,1-2.89.37h-8.74a.15.15,0,0,1-.15-.16c0-.22,0-.44,0-.67q0-9.06,0-18.13Zm7.25,0c0,3.85,0,7.69,0,11.54,0,1.26-.22,1,1.12,1a3,3,0,0,0,.42-.06A2.42,2.42,0,0,0,136,34.44a4.5,4.5,0,0,0,.26-.81,10.87,10.87,0,0,0,.26-2.79v-15a11.87,11.87,0,0,0-.14-2.07,5.14,5.14,0,0,0-.36-1.29A2.47,2.47,0,0,0,134.16,11a4.67,4.67,0,0,0-.91-.08c-.78,0-.71-.09-.71.73Z" transform="translate(-14.65 -3.8)"/><path class="cls-4" d="M46.58,19.45c0-4.74,0-9.49,0-14.23,0-.77-.09-.7.67-.7h6.47a.18.18,0,0,1,.18.2V5c-.07,6.73,0,13.47,0,20.21,0,2.63,0,5.26,0,7.88a12.91,12.91,0,0,1-.7,4.32A7.89,7.89,0,0,1,49.36,42a9.08,9.08,0,0,1-3,.94,12.54,12.54,0,0,1-3.77,0,7.86,7.86,0,0,1-6.19-4.43,10.48,10.48,0,0,1-.88-2.85,18.52,18.52,0,0,1-.23-3q0-11.65,0-23.33c0-1.34,0-2.69,0-4,0-.18,0-.37,0-.55a.18.18,0,0,1,.2-.18H42.3c.31,0,.33,0,.33.37s0,.81,0,1.22c-.12,9,0,18.08,0,27.12a7.33,7.33,0,0,0,.2,1.81,2.36,2.36,0,0,0,.27.68,1.55,1.55,0,0,0,1.34.82h.31a1.59,1.59,0,0,0,1.53-1,4.19,4.19,0,0,0,.33-1.48c0-.3,0-.61,0-.92Q46.58,26.29,46.58,19.45Z" transform="translate(-14.65 -3.8)"/><path class="cls-2" d="M177.41,118.67c0,4.5,0,9,0,13.5,0,1.69,0,3.38,0,5.07,0,.54,0,.54-.52.54h-8c-.37,0-.39,0-.39-.38,0-.59,0-1.18,0-1.77,0-1.16.06-2.32.06-3.48q0-15.87,0-31.75c0-.19,0-.37,0-.55s0-.27-.29-.28h-3.6c-.66,0-1.31,0-2,0-.39,0-.39,0-.4-.41V92.38c0-.13,0-.25,0-.37s0-.25.23-.26.28,0,.43,0h19.85c.75,0,.65-.07.65.64V99.3c0,.24,0,.27-.3.27h-5.55c-.25,0-.27,0-.27.29s0,.33,0,.49Z" transform="translate(-14.65 -3.8)"/><path class="cls-4" d="M21.74,31.19a1.62,1.62,0,0,1,.09.68,11.51,11.51,0,0,0,.29,2.48,4,4,0,0,0,.43,1.07,1.86,1.86,0,0,0,2.23.83,1.51,1.51,0,0,0,1-.86,3.87,3.87,0,0,0,.38-1.59,7.14,7.14,0,0,0-2.56-6.19c-.86-.72-1.77-1.38-2.66-2.05A20,20,0,0,1,18,23a11.46,11.46,0,0,1-3-6.68,16.25,16.25,0,0,1,.26-5.34,9.93,9.93,0,0,1,1.21-3,7.8,7.8,0,0,1,4-3.36,10.91,10.91,0,0,1,7.07-.26,6.65,6.65,0,0,1,4,3.23,10.76,10.76,0,0,1,1.15,3.2A20.75,20.75,0,0,1,33.1,15a2.09,2.09,0,0,1,0,.25.17.17,0,0,1-.16.15l-.24,0H26.34a.18.18,0,0,1-.18-.2c0-.18,0-.37,0-.55a15.82,15.82,0,0,0-.22-2.06,4,4,0,0,0-.33-1,1.69,1.69,0,0,0-2.7-.53,2.22,2.22,0,0,0-.61.9,3.88,3.88,0,0,0-.26,1,6,6,0,0,0,1.67,5A11.59,11.59,0,0,0,25,19.09l2.74,2a22.08,22.08,0,0,1,2,1.64A10.64,10.64,0,0,1,33,28.52a17.37,17.37,0,0,1-.18,7.92,10.2,10.2,0,0,1-.76,2,8,8,0,0,1-5.8,4.43,11.35,11.35,0,0,1-5-.09,7.58,7.58,0,0,1-5.06-3.9,11.89,11.89,0,0,1-1.19-3.58,18.35,18.35,0,0,1-.29-3.7,2.09,2.09,0,0,1,0-.25c0-.12.08-.17.2-.18h6.65A1.6,1.6,0,0,1,21.74,31.19Z" transform="translate(-14.65 -3.8)"/><path class="cls-4" d="M166.46,42.34a.77.77,0,0,1-.42.06h-6.6c-.18,0-.25-.1-.28-.26l-.3-1.68-.51-2.94c0-.12-.06-.24-.08-.36a.18.18,0,0,0-.17-.15h-5.5c-.29,0-.31,0-.36.29-.12.62-.23,1.24-.34,1.86l-.51,3c0,.26-.09.29-.37.3h-6.23l-.31,0a2.07,2.07,0,0,1,0-.25c.57-2.67,1.15-5.33,1.72-8q1.08-5,2.15-10c.67-3.12,1.35-6.24,2-9.37s1.35-6.28,2-9.42c0-.22.09-.44.14-.65a.24.24,0,0,1,.26-.21h5.31a.18.18,0,0,1,.18.14c0,.14.07.28.1.42q1.83,8.43,3.68,16.86,2,9.36,4.09,18.72c.08.37.17.75.25,1.13A1.65,1.65,0,0,1,166.46,42.34ZM153.41,30.6a24.57,24.57,0,0,0,3.74,0,2.83,2.83,0,0,0,0-.3l-.78-4.7c-.2-1.2-.38-2.41-.56-3.62-.13-.86-.23-1.73-.35-2.6a1,1,0,0,0-.06-.23,0,0,0,0,0,0,0c-.05,0-.08,0-.09,0l-.06.3c-.13,1-.23,2-.4,3-.32,2-.67,4-1,6C153.66,29.16,153.54,29.88,153.41,30.6Z" transform="translate(-14.65 -3.8)"/><path class="cls-3" d="M16.12,67.39V47.66a4.91,4.91,0,0,0-.05-.85c-.07-.37,0-.48.4-.49H31.38c.81,0,.75-.06.75.77V52.7c0,.67,0,.67-.68.67H25c-.12,0-.24,0-.36,0-.54,0-.54,0-.54.54q0,4.35,0,8.68c0,.55,0,.55.59.56h5.8c.31,0,.35.05.35.36s0,.7,0,1v5.68c0,.19,0,.37,0,.55a.2.2,0,0,1-.19.2h-.55q-2.65,0-5.31,0c-.7,0-.69,0-.69.66l0,15.45c0,.15,0,.29,0,.43s-.06.27-.3.29h-7c-.21,0-.46.08-.65-.07s0-.43,0-.64c0-1.3,0-2.6,0-3.91V67.39Z" transform="translate(-14.65 -3.8)"/><path class="cls-3" d="M42.44,87.83H35c-.79,0-.77,0-.76-.78,0-.41,0-.82,0-1.22.19-5.84.06-11.69.08-17.53s0-11.65,0-17.47c0-1.26-.13-2.52-.1-3.78,0-.8,0-.74.72-.74h6.66c.71,0,.68,0,.66.67-.19,5.47-.06,11-.08,16.42s0,10.92,0,16.37c0,.23,0,.45,0,.67a.19.19,0,0,0,.19.2h7.52c.74,0,.7,0,.7.69,0,2,0,3.91,0,5.87,0,.64,0,.62-.65.62Z" transform="translate(-14.65 -3.8)"/><path class="cls-4" d="M176.38,4.54h7a1,1,0,0,1-.1.58c-.65,2.29-1.31,4.57-2,6.86q-2.11,7.38-4.24,14.78a3.38,3.38,0,0,0-.13.9c0,3.76,0,7.53,0,11.29,0,.92,0,1.84,0,2.75,0,.16,0,.33,0,.49a.18.18,0,0,1-.18.2h-6.59c-.56,0-.55,0-.54-.53,0-1.16.06-2.32.06-3.48,0-3.52,0-7,0-10.57a4,4,0,0,0-.15-1.08q-3-10.81-6-21.63c-.05-.17-.08-.35-.12-.51a.41.41,0,0,1,.31-.08h6.81a3.91,3.91,0,0,1,.27,1.11c.59,3,1.15,5.91,1.73,8.86.21,1.06.47,2.1.63,3.17a.36.36,0,0,0,0,.11s0,0,.05,0,.09,0,.1,0a2.42,2.42,0,0,0,.12-.35c.55-2.48,1.11-5,1.66-7.44l1.08-4.88C176.27,4.93,176.33,4.76,176.38,4.54Z" transform="translate(-14.65 -3.8)"/><path class="cls-4" d="M99,4.57a1,1,0,0,1,.48-.05h6.41a.26.26,0,0,1,.29.24c.12.64.25,1.28.37,1.92.64,3.21,1.21,6.43,1.91,9.63.09.4.14.81.22,1.21a1,1,0,0,0,.1.27s.09,0,.1,0a.29.29,0,0,0,.09-.15c.27-1.5.68-3,1-4.46q.9-4.11,1.82-8.22a1,1,0,0,1,0-.24.25.25,0,0,1,.27-.2h6.53l.18,0c.12.14,0,.27,0,.4l-2.42,8.45-3.84,13.37a3.15,3.15,0,0,0-.14,1V38.46c0,1.06,0,2.12.06,3.18v.43c0,.29,0,.32-.31.33h-6.54c-.46,0-.47,0-.46-.48.07-4.7,0-9.4,0-14.11a4,4,0,0,0-.16-1.14q-2-7.11-3.95-14.22-1-3.67-2-7.35C99,4.92,98.94,4.76,99,4.57Z" transform="translate(-14.65 -3.8)"/><path class="cls-3" d="M124.78,67.08V49.37c0-.82,0-1.63,0-2.45,0-.14,0-.28,0-.42a.16.16,0,0,1,.16-.16,3.87,3.87,0,0,1,.48,0h6.66c.68,0,.65,0,.65.69v1q0,6.09,0,12.16V82.18c0,1.61,0,3.22,0,4.83,0,.2,0,.4,0,.61a.2.2,0,0,1-.2.19,2.17,2.17,0,0,1-.36,0h-6.84c-.55,0-.56,0-.56-.59q0-8.86,0-17.72V67.08Z" transform="translate(-14.65 -3.8)"/><path class="cls-5" d="M215.31,46.11a14.1,14.1,0,0,1,1.9-1,29.67,29.67,0,0,1,4.82-1.7,35.7,35.7,0,0,1,3.71-.71,27.35,27.35,0,0,1,4.87-.2,25.57,25.57,0,0,1,2.61.24,28,28,0,0,1,4.52,1,26.35,26.35,0,0,1,3,1.08,1.57,1.57,0,0,1,.23.09.4.4,0,0,1,.27.42c0,.43,0,.86,0,1.28l0,5.62c0,1.57,0,3.13-.05,4.7,0,2.25,0,4.51,0,6.77,0,3.4,0,6.8,0,10.19,0,.39,0,.78,0,1.16s0,.54-.18.75,0,.28-.05.42a1.36,1.36,0,0,1-.6,0,2.32,2.32,0,0,0-1.08,0,.9.9,0,0,0-.53,1.51,2.08,2.08,0,0,0,.3.25l-.62.23a.8.8,0,0,0-.51.82.78.78,0,0,0,.57.72L239,80c0,.18-.19.22-.28.32a.66.66,0,0,0,0,1,1.36,1.36,0,0,0,.85.44,7.38,7.38,0,0,0,1.33.1.63.63,0,0,1,.14.52c0,1.32-.05,2.64,0,4,0,.53,0,1.06,0,1.58,0,.67.15.78.81.75.43,0,.59-.17.6-.6,0-1,0-1.92,0-2.87,0-.73,0-1.47,0-2.2,0-.28,0-.57,0-.85s.08-.47.45-.51a5.11,5.11,0,0,0,.55,0,1.44,1.44,0,0,0,.85-.35c.22.07.35.22.54.25a.33.33,0,0,0,.4-.27,5.54,5.54,0,0,1,.19-1,1.45,1.45,0,0,1,.3,0c.86.36,1.77.6,2.65.91,1.1.41,2.23.76,3.3,1.24.54.24,1.06.51,1.58.79a24.84,24.84,0,0,0,2.82,1.31c.52.2.5.2.28.68a26.7,26.7,0,0,1-3.85,6.13,30.92,30.92,0,0,1-4.68,4.54,31.85,31.85,0,0,1-4.48,3,27.22,27.22,0,0,1-5,2,28.45,28.45,0,0,1-4.16,1c-.92.14-1.86.24-2.79.32a29.86,29.86,0,0,1-3.41.08,27.74,27.74,0,0,1-3.52-.32,27.3,27.3,0,0,1-6.27-1.75,30.61,30.61,0,0,1-3.76-1.87,2.15,2.15,0,0,1-.24-.18A.22.22,0,0,0,214,98h0a.14.14,0,0,0-.15-.1h0a.46.46,0,0,0,0-.41c-.11-.14-.21-.3-.32-.44l-1.28-1.77c-.54-.74-1.08-1.48-1.6-2.22-.36-.5-.67-1-1-1.49-.23-.29-.37-.64-.62-.9a3.59,3.59,0,0,1-.42-.6c-.33-.51-.61-1-.92-1.57a23,23,0,0,1-1.51-3.12,32.65,32.65,0,0,1-1.27-3.68c-.21-.8-.43-1.6-.59-2.41s-.31-1.46-.4-2.21a20,20,0,0,1-.21-2,4.73,4.73,0,0,0-.1-1.45,1.05,1.05,0,0,1,0-.31v-3.9a1.52,1.52,0,0,1,0-.48,2.74,2.74,0,0,0,.09-.85,2,2,0,0,1,0-.49c.16-.71.19-1.44.33-2.15a37.41,37.41,0,0,1,1.24-4.76,25.43,25.43,0,0,1,1.7-3.9c.28-.54.58-1.07.91-1.58.67-1,1.37-2.06,2.14-3,.32-.39.62-.8,1-1.18.44-.53.86-1.08,1.31-1.6a20.69,20.69,0,0,1,2.15-2.14,8,8,0,0,0,.65-.65.29.29,0,0,0,.07-.28h0C215.2,46.32,215.3,46.28,215.31,46.11Zm20.91,20.65c0-1.2.06-2.4-.09-3.6a15,15,0,0,0-.19-1.5,10.4,10.4,0,0,0-.34-1.36,2.57,2.57,0,0,0-.85-1.24.7.7,0,0,0-.9,0,1.88,1.88,0,0,0-.8,1.18,12.88,12.88,0,0,0-.4,2.83q-.06,1.74-.09,3.48a31.77,31.77,0,0,0,.08,3.65c.05.54.08,1.09.1,1.64a5.24,5.24,0,0,0,.62,2.34,1.5,1.5,0,0,0,.69.65.76.76,0,0,0,1.08-.35,2.39,2.39,0,0,0,.13-.28,9.41,9.41,0,0,0,.7-2.82,4.93,4.93,0,0,1,0-.54,14.82,14.82,0,0,0,.21-2.74C236.21,67.65,236.22,67.21,236.22,66.76Zm-22.53-2a18.48,18.48,0,0,0,.1,2.12,34.61,34.61,0,0,0,.79,4.75,18.49,18.49,0,0,0,.59,1.92,1.53,1.53,0,0,0,.49.68.56.56,0,0,0,.63.07,1,1,0,0,0,.48-.45,2.68,2.68,0,0,0,.27-.68,11.88,11.88,0,0,0,.35-2.59c0-.91,0-1.83,0-2.75-.06-1.24-.17-2.47-.26-3.71a21.76,21.76,0,0,0-.32-2.54,5.39,5.39,0,0,0-.54-1.55,2.1,2.1,0,0,0-.49-.62.81.81,0,0,0-1.28.27,7.88,7.88,0,0,0-.75,3.06C213.76,63.34,213.71,64,213.69,64.75Zm11,22.37a2.54,2.54,0,0,0,2.3-1.5,6,6,0,0,0,.41-1.21.53.53,0,0,0-.21-.54.16.16,0,0,0-.22,0,1,1,0,0,0-.21.5,2.82,2.82,0,0,1-.35.84,1.22,1.22,0,0,1-.91.65,6.4,6.4,0,0,1-1.16.05,2.09,2.09,0,0,1-1.23-.45,4.12,4.12,0,0,1-.84-.88,4.33,4.33,0,0,0-.38-.47.11.11,0,0,0-.16,0,.48.48,0,0,0-.08.16.06.06,0,0,0,0,.06,10.55,10.55,0,0,0,.62,1.65,1.84,1.84,0,0,0,.5.61A2.84,2.84,0,0,0,224.67,87.12Z" transform="translate(-14.65 -3.8)"/><path class="cls-6" d="M198.25,34.88A29.09,29.09,0,0,1,200,31.34L201.37,29c.63-1.11,1.28-2.21,2-3.29.41-.63.83-1.25,1.29-1.84s.71-.9,1.09-1.31c.8-.87,1.55-1.78,2.36-2.64s1.78-1.95,2.67-2.93A29.29,29.29,0,0,1,214,14c.64-.53,1.28-1.06,1.95-1.56a26.25,26.25,0,0,1,2.61-1.8,36,36,0,0,1,4-2c.67-.29,1.37-.51,2.05-.77,1.16-.45,2.31-.91,3.49-1.28a21.06,21.06,0,0,1,3.13-.78,12.57,12.57,0,0,1,2.13-.16c.42,0,.85-.05,1.27-.07,1.22,0,2.44,0,3.64-.06.1.16,0,.22-.06.3-1.13,1.46-2.24,2.94-3.24,4.5-.29.46-.64.9-1,1.33a34.36,34.36,0,0,0-2.21,3.29c-.62,1-1.28,2.08-1.91,3.12-.5.84-1,1.69-1.46,2.54-1,1.83-2,3.69-2.87,5.57-.66,1.35-1.37,2.68-1.95,4.06a35.09,35.09,0,0,0-1.47,3.93,2.53,2.53,0,0,1-.12.33c-.16,0-.25,0-.36-.1a7.82,7.82,0,0,1-.72-.45,11.52,11.52,0,0,0-2.82-1.43c-.94-.33-1.84-.74-2.81-1a12.33,12.33,0,0,0-2.7-.41,26.17,26.17,0,0,0-4,.12,27.79,27.79,0,0,0-4,.75,21.54,21.54,0,0,0-5.82,2.74,1.52,1.52,0,0,1-.53.29Z" transform="translate(-14.65 -3.8)"/><path class="cls-3" d="M257.58,34.58c-.15-.17-.12-.39-.16-.58-.31-1.41-.81-2.77-1.21-4.16-.91-3.18-2.07-6.29-3.19-9.4a38.61,38.61,0,0,0-1.54-3.85,47.73,47.73,0,0,0-3.44-6C247,9.1,246,7.58,244.9,6.05l-.12-.19c.06-.16.18-.11.26-.1.65.07,1.29.14,1.93.25a5.36,5.36,0,0,1,1.18.29,7.93,7.93,0,0,0,1.28.4,11.76,11.76,0,0,1,1.93.54c.59.22,1.2.36,1.8.54,1.2.38,2.37.84,3.54,1.3l.68.26a23,23,0,0,1,3,1.34c.72.38,1.43.78,2.15,1.15A15.23,15.23,0,0,1,264.27,13a16.73,16.73,0,0,1,1.65,1.26,3,3,0,0,0,.34.25A26.89,26.89,0,0,1,269,16.61c1,.83,1.93,1.68,2.91,2.52a37.29,37.29,0,0,1,4.13,4.3c.68.81,1.36,1.62,2,2.45A20.92,20.92,0,0,1,280.17,29c.33.6.69,1.19,1,1.82a40.78,40.78,0,0,1,1.5,4c.11.35.23.7.33,1a6.39,6.39,0,0,1,.24,1.73.24.24,0,0,1-.23,0,3.11,3.11,0,0,1-.47-.29,11.77,11.77,0,0,0-2-1.32c-.52-.33-1.05-.63-1.57-.95a7.42,7.42,0,0,0-1.19-.61,35.19,35.19,0,0,0-4.38-1.47,9,9,0,0,0-1.92-.32c-.47,0-.93-.07-1.4-.1a19.11,19.11,0,0,0-2.93,0,19.31,19.31,0,0,0-3.21.33,17.3,17.3,0,0,0-3.2,1,9.54,9.54,0,0,0-1.32.75l-.41.26a.44.44,0,0,1-.15-.25c-.08-.27-.17-.53-.27-.8a.19.19,0,0,0-.13-.1.17.17,0,0,0-.14.09c-.07.14-.13.29-.19.44A.54.54,0,0,1,257.58,34.58Z" transform="translate(-14.65 -3.8)"/><path class="cls-7" d="M257.34,35.76a1.2,1.2,0,0,1-.49-.39,5.33,5.33,0,0,0-.92-.79l-2.8-1.85a12.23,12.23,0,0,0-2.29-1.14,39.12,39.12,0,0,0-4.32-1.45,41.27,41.27,0,0,0-4.89-1,10.44,10.44,0,0,0-2.62,0c-1.27.15-2.54.3-3.8.56a23.84,23.84,0,0,0-3.34.9c-.52.19-1,.36-1.56.53a17.16,17.16,0,0,0-2.46,1.05c-.49.25-1,.47-1.48.71s-.88.42-1.3.67c-.69.4-1.41.73-2.11,1.09-.13-.11,0-.22,0-.33a29,29,0,0,1,1.95-4.46c.73-1.39,1.41-2.8,2.13-4.18.89-1.7,1.7-3.43,2.67-5.08.56-1,1.14-1.92,1.73-2.87q1.56-2.49,3.13-4.95,1.17-1.86,2.38-3.69c.5-.77,1.06-1.5,1.58-2.25.26-.36.5-.74.74-1.11a.43.43,0,0,1,.41-.21l1.09.08c.76,0,1.51,0,2.26.1a.53.53,0,0,1,.46.31,21.75,21.75,0,0,0,1.42,2.12c.92,1.27,1.87,2.51,2.76,3.8.57.83,1.06,1.72,1.57,2.6.66,1.14,1.23,2.33,1.82,3.51.49,1,.87,2,1.26,3s.66,1.75,1,2.63c.61,1.65,1.22,3.31,1.81,5s1.14,3.34,1.69,5c.2.6.34,1.22.5,1.83C257.32,35.54,257.32,35.65,257.34,35.76Z" transform="translate(-14.65 -3.8)"/><path class="cls-5" d="M245.55,78.74A18.44,18.44,0,0,1,250.21,80l2.51,1.1a3.66,3.66,0,0,0,.46.18,23,23,0,0,1,2.5,1c.46.19.93.39,1.41.57a4.31,4.31,0,0,0,1.92.22,1.05,1.05,0,0,0,1-.84,4.65,4.65,0,0,0,.17-2.1A5.72,5.72,0,0,0,259,77.56a.48.48,0,0,0-.12,0,8.68,8.68,0,0,0-.27,1c-.2,1-.48,2.06-.77,3.07a2.47,2.47,0,0,1-.1.29c-.09.24-.15.28-.41.21l-1.05-.32a37.78,37.78,0,0,1-4.06-1.48l-1.72-.79a16.51,16.51,0,0,0-3.15-.93,9.06,9.06,0,0,1-1.47-.38c-.27-.11-.48-.2-.47-.54a.73.73,0,0,0-.07-.29.4.4,0,0,0-.61-.26c-.14.06-.25.07-.31-.07a3,3,0,0,0-1.63-1.47.4.4,0,0,1-.27-.41c0-2.28,0-4.56,0-6.84s0-4.59,0-6.89c0-1.48,0-3,0-4.45,0-3,0-6,0-9V45.81c.13-.09.22,0,.3,0a34.3,34.3,0,0,1,3.39,2,31.34,31.34,0,0,1,5.3,4.66,29.85,29.85,0,0,1,5.85,9.93,31.72,31.72,0,0,1,1.36,5.17,28.69,28.69,0,0,1,.38,4.43c0,1.1-.05,2.2-.1,3.29a.85.85,0,0,0,.2.61,9.81,9.81,0,0,1,1.61,2.92,7.82,7.82,0,0,1,.38,2.4,6,6,0,0,1-.29,2.1,3.22,3.22,0,0,1-.21.51,1,1,0,0,1-.76.54,3.77,3.77,0,0,1-1.34-.06c-1-.23-1.93-.48-2.88-.75a9,9,0,0,1-2.05-.93,17.65,17.65,0,0,0-2.76-1.27c-.88-.3-1.72-.73-2.61-1a21,21,0,0,0-2.56-.78c-.28,0-.34-.13-.31-.41A.86.86,0,0,1,245.55,78.74Z" transform="translate(-14.65 -3.8)"/><path class="cls-8" d="M246.61,129.5a14.38,14.38,0,0,1,.14-2.17c.29,0,.5.11.73.17a5.16,5.16,0,0,1,.74.29,13.24,13.24,0,0,0,1.93.74,24.33,24.33,0,0,1,2.73,1,4.1,4.1,0,0,1,2.24,2.13,1.73,1.73,0,0,1-.19,1.84,12,12,0,0,1-1,1.22,4.24,4.24,0,0,1-2.47,1.22c-.8.14-1.61.2-2.42.28-1,.09-2.07.11-3.11.15-1.34.06-2.68.05-4,.11-1.53.07-3.06,0-4.58.11l-2.5.14c-.2,0-.4,0-.6,0-1.43-.1-2.85,0-4.28-.12s-2.85.05-4.27,0c-1.26,0-2.53,0-3.79,0-1.07,0-2.14-.18-3.21-.27l-2.07-.18c-.93-.08-1.87-.12-2.79-.26-1.19-.19-2.38-.31-3.57-.43-.83-.07-1.66-.16-2.5-.16a9,9,0,0,1-2-.26,14.84,14.84,0,0,0-1.63-.22,32.58,32.58,0,0,1-3.25-.46c-.54-.1-1.09-.16-1.62-.3a3.38,3.38,0,0,1-1.44-.75,1.46,1.46,0,0,1-.44-1.75,3,3,0,0,1,1-1.32,9.44,9.44,0,0,1,2.87-1.44c.66-.21,1.3-.47,2-.68.83-.26,1.69-.44,2.54-.62l.59-.13c.25,0,.31,0,.3.24s0,.4,0,.6a4.24,4.24,0,0,0-1.6.73.39.39,0,0,0-.37.24.4.4,0,0,0-.37.25l-.12.12-.13.12-.12.12c-.49.13-.62.56-.69,1a.84.84,0,0,0,.33.8l0,0h.11a.11.11,0,0,0,0-.1c-.05-.11-.12-.21-.17-.32a.78.78,0,0,1,.11-.94.67.67,0,0,0,.24-.41l.13-.12.12-.13.12-.12a.38.38,0,0,0,.36-.24.39.39,0,0,0,.37-.25,1.62,1.62,0,0,0,.71-.24c.21-.09.39-.27.65-.22a.55.55,0,0,1-.18.31,7.4,7.4,0,0,0-.56.56,1.29,1.29,0,0,0,.31,2.07,8.52,8.52,0,0,0,2,.9,9.27,9.27,0,0,0,2.39.4,1.14,1.14,0,0,1,.37,0,2.64,2.64,0,0,0,.84.09,5.43,5.43,0,0,1,.91,0,4.29,4.29,0,0,0,.79.07c1.93,0,3.87,0,5.8,0a115.12,115.12,0,0,1,3.75.37,26.81,26.81,0,0,1,2.68.11c.52.05,1.05.1,1.56.18s1.05.11,1.57.18a10.75,10.75,0,0,0,2.12.15.69.69,0,0,1,.25,0,3.61,3.61,0,0,0,1.09.1c.69,0,1.38,0,2.07,0,.4,0,.77.13,1.15.1a9.71,9.71,0,0,1,1.21-.1c.82.06,1.62-.13,2.43-.14a2,2,0,0,0,.24,0l1.26-.19a7.49,7.49,0,0,0,1.07-.2,18.83,18.83,0,0,0,2.56-.76,12.2,12.2,0,0,0,2.73-1,1,1,0,0,0,.31-1.75A3,3,0,0,0,246.61,129.5Zm2.81,1-.12-.12a.23.23,0,0,0-.25-.24.45.45,0,0,0-.49-.24.25.25,0,0,0-.25-.13.38.38,0,0,0-.05-.15.08.08,0,0,0-.14,0,.12.12,0,0,0,0,.1,1,1,0,0,0,.16,0,.24.24,0,0,0,.24.12.44.44,0,0,0,.49.25.25.25,0,0,0,.24.25l.12.12.12.12a3.42,3.42,0,0,0,.13.34.75.75,0,0,1-.05.86c-.08.11-.2.21-.19.37a.41.41,0,0,0-.36.26,2.46,2.46,0,0,0-.29.09,8.9,8.9,0,0,1-1.12.47,22.46,22.46,0,0,1-2.66.66c-.44.07-.88.12-1.32.2-.7.13-1.39.27-2.08.43a2.37,2.37,0,0,0-1,.35l0,0,0,0a4.38,4.38,0,0,0,1-.07c1-.2,1.9-.37,2.86-.53a16,16,0,0,0,4-1.16c.21-.1.45-.18.55-.44a.37.37,0,0,0,.38-.24c.06,0,.14,0,.17,0a1.33,1.33,0,0,0,.42-.83.78.78,0,0,0-.14-.51.39.39,0,0,0-.33-.22Zm-2.33-1.33s0-.07-.07-.09-.08,0-.09,0,0,0,0,0l.11,0c.09.14.23.12.37.12s.17.27.37.21c0,0,0,0,0,0-.08-.19-.25-.16-.41-.17S247.22,129.15,247.09,129.15Zm-42.64,3.17c0-.17-.08-.31-.28-.31a.07.07,0,0,0,0,0c0,.21.15.25.32.28a.8.8,0,0,0,.61.36.5.5,0,0,0,.3.2c.1.05.19.15.33.11s-.06-.16-.27-.25a.7.7,0,0,0-.35-.06A.6.6,0,0,0,204.45,132.32ZM224.82,135h-.66a1.54,1.54,0,0,1-.48,0,4.47,4.47,0,0,0-1.21-.1c-.14,0-.28,0-.42,0l-1.5-.23-1.79-.29c-.54-.08-1.08-.14-1.62-.19a4,4,0,0,1-.84-.09,1.47,1.47,0,0,0-.82.05,4.44,4.44,0,0,0,1.31.16,1,1,0,0,1,.3,0,2.34,2.34,0,0,0,.59.09,12.87,12.87,0,0,1,1.39.17,17,17,0,0,0,3.41.44,1.56,1.56,0,0,1,.31,0A5,5,0,0,0,224.82,135Z" transform="translate(-14.65 -3.8)"/><path class="cls-7" d="M214.7,111.18a5.91,5.91,0,0,1,1,0l1.34,0c1.29,0,2.56.11,3.84.18.79.05,1.59.05,2.38.06a9.25,9.25,0,0,1,1.58.09c.32.06.39.11.4.42,0,1.18.15,2.35.08,3.53a31.41,31.41,0,0,0,.08,3.36c0,.47,0,.93.06,1.4.06,1.34.1,2.68.09,4,0,.79,0,1.58.09,2.38s0,1.42,0,2.13c0,.25,0,.49,0,.73,0,.39,0,.39-.39.38-.67,0-1.34-.12-2-.12-1,0-1.91.1-2.86.18-.55,0-1.09.12-1.64.15s-1.22,0-1.83,0a5.13,5.13,0,0,0-1.46.13,1.93,1.93,0,0,1-.42.06c-1,0-2.07.11-3.11.13-.77,0-1.54-.05-2.31-.07a.54.54,0,0,1-.41-.23,3.14,3.14,0,0,1-.79-2.24,6.4,6.4,0,0,1,.11-1,1.77,1.77,0,0,1,.69-1.18,1.45,1.45,0,0,0,.23-.19,3.66,3.66,0,0,1,2.21-1.08,7,7,0,0,1,.9-.13,6.32,6.32,0,0,1,3.6.92,3.5,3.5,0,0,1,1.34,1c.1.16.3.2.46.3v0h.05l.14,0a.2.2,0,0,0,.24-.21,4.52,4.52,0,0,0-.11-1.27,26.28,26.28,0,0,0-.87-3.47c-.6-1.7-1-3.45-1.56-5.17-.15-.53-.28-1.06-.38-1.6C215.33,113.69,215,112.43,214.7,111.18Z" transform="translate(-14.65 -3.8)"/><path class="cls-7" d="M237.67,113.25l-.21-1.76c0-.12.06-.18.18-.16l3.09.31a2.3,2.3,0,0,0,.37,0,8.17,8.17,0,0,1,1.64.1,5.21,5.21,0,0,0,.79,0c1,0,2,0,3.05.11l.21,0c.13.12.07.25.07.36a2.33,2.33,0,0,1,0,.37,21.56,21.56,0,0,0-.22,2.79c0,.45,0,.89-.07,1.34-.06.85-.12,1.7-.17,2.55q0,.92-.15,1.83c-.05.46-.07.93-.09,1.39-.06,1.16-.1,2.32-.16,3.48,0,.77-.13,1.53-.17,2.31a8.22,8.22,0,0,0-.07,1.57,1.07,1.07,0,0,1,0,.31c0,.29-.16.42-.44.37a8.55,8.55,0,0,0-2.42.13l-1.82.15c-.71.06-1.42.1-2.13.19l-4.11.51c-.54.07-1.09.09-1.64.15a10,10,0,0,1-1.64,0,.3.3,0,0,1-.31-.25.13.13,0,0,0,0-.06,6.52,6.52,0,0,1,.19-3.25,4.18,4.18,0,0,1,1.47-1.9,7.46,7.46,0,0,1,2.87-1.43,3.36,3.36,0,0,1,2.21.16c.39.17.76.37,1.14.56l.86.44c.12-.13.05-.25,0-.36a3.11,3.11,0,0,0,0-.61c-.14-.73-.29-1.46-.38-2.2a22.85,22.85,0,0,0-.67-3.27c-.23-.8-.36-1.62-.55-2.43a14.47,14.47,0,0,1-.58-3.52A.41.41,0,0,0,237.67,113.25Z" transform="translate(-14.65 -3.8)"/><path class="cls-9" d="M215.05,46.28a.29.29,0,0,1-.07.28,8,8,0,0,1-.65.65,20.69,20.69,0,0,0-2.15,2.14c-.45.52-.87,1.07-1.31,1.6-.33.38-.63.79-1,1.18-.77,1-1.47,2-2.14,3-.33.51-.63,1-.91,1.58a25.43,25.43,0,0,0-1.7,3.9,37.41,37.41,0,0,0-1.24,4.76c-.14.71-.17,1.44-.33,2.15a2,2,0,0,0,0,.49,2.74,2.74,0,0,1-.09.85,1.52,1.52,0,0,0,0,.48v3.9a1.05,1.05,0,0,0,0,.31,4.73,4.73,0,0,1,.1,1.45,20,20,0,0,0,.21,2c.09.75.26,1.47.4,2.21s.38,1.61.59,2.41a32.65,32.65,0,0,0,1.27,3.68,23,23,0,0,0,1.51,3.12c.31.52.59,1.06.92,1.57a3.59,3.59,0,0,0,.42.6c.25.26.39.61.62.9.38.47.69,1,1,1.49.52.74,1.06,1.48,1.6,2.22l1.28,1.77c.11.14.21.3.32.44a.46.46,0,0,1,0,.41,1.11,1.11,0,0,1-.48-.25,28.72,28.72,0,0,1-6.51-5.58,29.4,29.4,0,0,1-5-8.07,30.06,30.06,0,0,1-1.63-5.22,25.05,25.05,0,0,1-.58-4.22c0-.69-.08-1.38-.09-2.07a27.11,27.11,0,0,1,.37-4.68,30.28,30.28,0,0,1,4-10.92,29.54,29.54,0,0,1,5.13-6.33,31.74,31.74,0,0,1,3.33-2.68c.74-.51,1.5-1,2.26-1.44A.79.79,0,0,1,215.05,46.28Z" transform="translate(-14.65 -3.8)"/><path class="cls-10" d="M246.61,129.5a3,3,0,0,1,.58.54,1,1,0,0,1-.31,1.75,12.2,12.2,0,0,1-2.73,1,18.83,18.83,0,0,1-2.56.76,7.49,7.49,0,0,1-1.07.2l-1.26.19a2,2,0,0,1-.24,0c-.81,0-1.61.2-2.43.14a9.71,9.71,0,0,0-1.21.1c-.38,0-.75-.12-1.15-.1-.69,0-1.38,0-2.07,0a3.61,3.61,0,0,1-1.09-.1.69.69,0,0,0-.25,0,10.75,10.75,0,0,1-2.12-.15c-.52-.07-1-.1-1.57-.18s-1-.13-1.56-.18a26.81,26.81,0,0,0-2.68-.11,115.12,115.12,0,0,0-3.75-.37c-1.93,0-3.87,0-5.8,0a4.29,4.29,0,0,1-.79-.07,5.43,5.43,0,0,0-.91,0,2.64,2.64,0,0,1-.84-.09,1.14,1.14,0,0,0-.37,0,9.27,9.27,0,0,1-2.39-.4,8.52,8.52,0,0,1-2-.9,1.29,1.29,0,0,1-.31-2.07,7.4,7.4,0,0,1,.56-.56.55.55,0,0,0,.18-.31l.23,0,.39,1.32a.78.78,0,0,0-.23.08.5.5,0,0,0-.19.77c.14.25.23.31.78.46,0,0,0,0,0,0s-.23-.15-.34-.23a.53.53,0,0,1-.15-.82l.13-.2a2.74,2.74,0,0,0,1,1.09.4.4,0,0,0,.21.29,2.6,2.6,0,0,0,1.09.36,6.08,6.08,0,0,0,1.21,0,8.93,8.93,0,0,1,1.27,0l.24,0c.44,0,.88-.09,1.32-.09,1.26,0,2.52,0,3.78,0a2,2,0,0,0,.49,0,3.66,3.66,0,0,1,1.09-.09h1.65a1.55,1.55,0,0,0,.43,0,4,4,0,0,1,1.15-.09,7.54,7.54,0,0,0,1.57-.11,2,2,0,0,1,.73,0,6,6,0,0,0,2.1-.16h.06c.24-.1.49-.24.48-.49s-.32-.37-.6-.38a4.49,4.49,0,0,1,0-1,13.07,13.07,0,0,0,0-1.77c0-.26,0-.53,0-.79h4.17a6.38,6.38,0,0,0-.95,2.47,6.94,6.94,0,0,0,.23,3.29.51.51,0,0,0,.33.39c.07.34.38.36.62.4a8.92,8.92,0,0,0,1.45.15,16.9,16.9,0,0,0,2.56-.09c.67-.1,1.37,0,2.06-.12s1.24-.19,1.85-.32,1.27-.24,1.92-.33c.42-.06.84-.09,1.26-.13s1-.14,1.44-.22A6,6,0,0,1,244,132a5.78,5.78,0,0,0,1.37-.23.28.28,0,0,1,.29.06c-.08.18-.26.18-.41.22-.36.12-.74.2-1.11.31l-1.06.33a1.86,1.86,0,0,0,.79,0l1.28-.37a6,6,0,0,0,1.26-.59.71.71,0,0,0,.46-.59.31.31,0,0,0,.09-.07,0,0,0,0,0,0-.08s0,0,0,0a.45.45,0,0,0,0,.11l-.38.24c0-.15,0-.3-.14-.39Zm-19.55,2.21a1.76,1.76,0,0,0-.61.06,1.1,1.1,0,0,1-.67,0,7.43,7.43,0,0,0-1.7-.08.31.31,0,0,0-.33.24h2.64a.81.81,0,0,0,.65-.23c.11,0,.21-.06.29-.1a1,1,0,0,0,.41-1.44c0-.07-.1-.16-.18-.13s0,.13,0,.19a1,1,0,0,1-.09,1C227.35,131.46,227.12,131.51,227.06,131.71Zm-9.07.56a9.18,9.18,0,0,0-1.73-.2,1.79,1.79,0,0,1-.61-.06,1.6,1.6,0,0,0-.84,0,3.47,3.47,0,0,1-.79.07H210.8a2.73,2.73,0,0,0,1,.25h1.71a1.46,1.46,0,0,0,.42,0,3.05,3.05,0,0,1,.9-.08h1.53a2.48,2.48,0,0,1,.54.06A2.48,2.48,0,0,0,218,132.27Z" transform="translate(-14.65 -3.8)"/><path class="cls-11" d="M224.72,102.66l1.38.19a3,3,0,0,0,.31,0,4.89,4.89,0,0,1,1.32.13,3.38,3.38,0,0,0,.11.34c.45,1,.9,1.9,1.36,2.85,0,.06,0,.16.17.13a.64.64,0,0,0,.1-.13c.5-1.06,1-2.12,1.49-3.18l2.93-.29a1.87,1.87,0,0,1-.21.81,1.14,1.14,0,0,0-.16.57c-.16.11-.19.3-.26.47L229.6,114c-.07.19-.16.37-.25.58a.67.67,0,0,1-.22-.36c-1.23-3.17-2.45-6.34-3.69-9.5-.08-.22-.09-.49-.34-.62a2.18,2.18,0,0,0-.25-.87A1.21,1.21,0,0,1,224.72,102.66Z" transform="translate(-14.65 -3.8)"/><path class="cls-11" d="M218.42,44l-1.15.5-1.81.81a1.18,1.18,0,0,0-.4-.37l-1.54-1.07-.71-.48-.21-.11a.14.14,0,0,0-.21.14c0,.49.07,1,.09,1.45,0,.69.15,1.37.17,2.06a5.33,5.33,0,0,1-.82.59l-1.65,1.2-.25-1.48a6.54,6.54,0,0,0-.17-1.32c-.26-1.77-.53-3.53-.81-5.3l-.69-4.32a1.46,1.46,0,0,1,0-.21c.21,0,.32.16.45.26l3.94,3.17,4,3.25.44.33c.16.05.25.2.37.29A3,3,0,0,0,218.42,44Z" transform="translate(-14.65 -3.8)"/><path class="cls-11" d="M202.1,58.65c-.21.46-.42.91-.62,1.37l-.53,1.2a2.13,2.13,0,0,1-.16.25,12,12,0,0,0-.88-1.14l-3.08-3.86c-1.21-1.5-2.43-3-3.63-4.51a1.16,1.16,0,0,1-.32-.49,8.94,8.94,0,0,1,1.07.13l3.73.58,3.49.55,2.58.41h.31a3.33,3.33,0,0,0,.69.12,3.77,3.77,0,0,1,.76.13l-1.29,1.77-.5.69c-.64,0-1.28-.18-1.94-.15a1,1,0,0,1-.29-.05,5.49,5.49,0,0,0-1.28,0c-.11,0-.16.11-.11.22a2.39,2.39,0,0,0,.12.22c.37.53.72,1.08,1.11,1.59A7,7,0,0,0,202.1,58.65Z" transform="translate(-14.65 -3.8)"/><path class="cls-11" d="M254.58,53.14a3,3,0,0,0,.9-.11l6.8-1.05,3.45-.53c0,.22-.14.34-.25.47l-2.4,3q-2.19,2.7-4.36,5.41c-.23.29-.46.6-.7.89a1,1,0,0,1-.2.14c-.26-.57-.53-1.14-.77-1.71a5.28,5.28,0,0,1-.45-1l1.22-1.74.67-1c.12-.2.05-.29-.19-.3s-.2,0-.3,0c-.71,0-1.41.18-2.12.14-.28.12-.61,0-.87.21-.44-.61-.88-1.2-1.3-1.81a3.78,3.78,0,0,1-.53-.73.82.82,0,0,1,.28-.11A8.6,8.6,0,0,0,254.58,53.14Z" transform="translate(-14.65 -3.8)"/><path class="cls-11" d="M260.91,68.31c.11.2.33.23.51.3l5.51,2.13,4,1.54a1.35,1.35,0,0,1,.48.24c-.13.18-.35.2-.53.27l-9.31,3.61c-.22.09-.47.11-.63.32l-.34,0c-.29-.4-.4-.9-.71-1.28a.48.48,0,0,1-.07-.35l.12-1c.35-.15.71-.29,1.06-.45.63-.28,1.25-.58,1.88-.88.12-.06.31-.08.29-.25s-.17-.16-.27-.21c-.59-.28-1.18-.56-1.77-.82-.39-.18-.78-.34-1.18-.5a4.85,4.85,0,0,1-.08-.53,22.76,22.76,0,0,0-.27-2.33c0-.06,0-.12,0-.18a2.11,2.11,0,0,1,.81.24A1.19,1.19,0,0,0,260.91,68.31Z" transform="translate(-14.65 -3.8)"/><path class="cls-11" d="M215.45,99.82c.44.1.8.38,1.23.52a.31.31,0,0,1,.13.18c.11.42.21.83.31,1.24a.21.21,0,0,1-.08.22l-.33.27q-4,3.24-8,6.46a3.53,3.53,0,0,1-.34.24c-.14-.08-.08-.18-.06-.27.18-1.2.37-2.41.56-3.61l.69-4.39.39-2.53a2.29,2.29,0,0,0,0-.37,7.8,7.8,0,0,0,.15-1.08c0-.08.07-.14.14-.19l2.41,1.73c0,.66-.17,1.32-.14,2a2,2,0,0,1-.05.24,4.93,4.93,0,0,0-.05,1.15.13.13,0,0,0,.18.12,3.47,3.47,0,0,0,.37-.21Z" transform="translate(-14.65 -3.8)"/><path class="cls-11" d="M256.52,86.37l.54-1.16a.22.22,0,0,1,.3-.13,5.36,5.36,0,0,0,1.38.21.9.9,0,0,1,.76.4c.79,1,1.6,2,2.41,3l3.51,4.37c.12.14.22.29.33.43-.08.15-.19.1-.27.08-2-.3-3.93-.62-5.89-.93l-4.82-.74a1.08,1.08,0,0,0-.18,0,8.1,8.1,0,0,0-1.1-.16,1.1,1.1,0,0,1-.33-.12l1.72-2.43c.67,0,1.33.18,2,.14a.25.25,0,0,1,.12,0,4.5,4.5,0,0,0,1.32.09c.23,0,.28-.1.16-.31l-.09-.16c-.54-.78-1.07-1.57-1.62-2.35A3,3,0,0,0,256.52,86.37Z" transform="translate(-14.65 -3.8)"/><path class="cls-12" d="M233.52,40.94c1.22-1.66,2.43-3.32,3.65-5l2.74-3.75c.08-.11.12-.26.32-.28,0,.21.09.43.11.64.14,1.32.27,2.64.41,4s.29,2.59.44,3.88a1.1,1.1,0,0,1,0,.18c0,1.24,0,2.48,0,3.75A4.9,4.9,0,0,1,240,44c-.4-.13-.79-.3-1.18-.45a3,3,0,0,0,0-.43c-.1-.63-.22-1.26-.33-1.89-.08-.4-.17-.79-.25-1.19,0-.14-.17-.17-.28,0l-.5.6c-.52.62-1,1.23-1.57,1.84a1,1,0,0,0-.11.28l-1.69-.3c-.16-.4-.31-.8-.46-1.2A.85.85,0,0,1,233.52,40.94Z" transform="translate(-14.65 -3.8)"/><path class="cls-11" d="M233.52,40.94a.85.85,0,0,0,0,.23c.15.4.3.8.46,1.2l-.84-.09L231,42a13.25,13.25,0,0,0-.79-1.71,9.19,9.19,0,0,0-.83-1.66l-.1.11c-.47,1-.95,2-1.41,3a1.24,1.24,0,0,0-.06.29l-3,.33a1.14,1.14,0,0,1,.13-.57,2.09,2.09,0,0,0,.25-.85c.18-.07.2-.24.26-.39q1-2.65,2.06-5.33c.25-.64.51-1.28.75-1.93a.8.8,0,0,1,.53-.53l1.29-.48a.67.67,0,0,1,.23.38q1.47,3.8,2.95,7.6A1.47,1.47,0,0,0,233.52,40.94Z" transform="translate(-14.65 -3.8)"/><path class="cls-12" d="M205.51,53.39a3.77,3.77,0,0,0-.76-.13,3.33,3.33,0,0,1-.69-.12,11.51,11.51,0,0,0-.59-1.4l-3.72-8.43c-.07-.16-.12-.32-.19-.48.2-.09.31,0,.43.08l8.43,3.72c.5.22,1,.42,1.51.63l.25,1.48a9.81,9.81,0,0,1-1.21,1,5.85,5.85,0,0,1-1.21-.38l-2.22-.8c-.06,0-.12,0-.17,0a.13.13,0,0,0,0,.16c.33.93.67,1.86,1,2.79a1,1,0,0,0,.27.53A13,13,0,0,1,205.51,53.39Z" transform="translate(-14.65 -3.8)"/><path class="cls-12" d="M254.58,53.14a8.6,8.6,0,0,1-1.12.15.82.82,0,0,0-.28.11,2.22,2.22,0,0,1-.44-.48c-.24-.3-.49-.58-.74-.87a1,1,0,0,0,.22-.42c.24-.63.48-1.25.7-1.87.13-.34.24-.69.35-1,0-.12,0-.19-.17-.16l0,0L250,49.7a.67.67,0,0,0-.21.13l-1.37-1.18s.11-.09.12-.14c.06-.41.11-.83.17-1.25a1.71,1.71,0,0,0,.57-.21l9.31-4.11.34-.14a.14.14,0,0,1,.11,0,.14.14,0,0,1,0,.11c-.08.21-.16.41-.25.62q-2,4.45-4,8.92C254.75,52.68,254.67,52.91,254.58,53.14Z" transform="translate(-14.65 -3.8)"/><path class="cls-12" d="M199.91,60.33a12,12,0,0,1,.88,1.14l-.53,1.58-2.26.38-1.25.25a.15.15,0,0,0-.06.2c.14.22.38.31.56.47L199.18,66a.88.88,0,0,0,.22.1,12.47,12.47,0,0,1-.36,1.82.92.92,0,0,0-.51.15,2.08,2.08,0,0,1-.81.22L189,61.94a.8.8,0,0,1-.31-.32c.32,0,.59-.1.86-.13l2.79-.29,2.79-.32c.91-.1,1.82-.17,2.72-.29A14.15,14.15,0,0,0,199.91,60.33Z" transform="translate(-14.65 -3.8)"/><path class="cls-12" d="M253.16,91.62a1.1,1.1,0,0,0,.33.12,8.1,8.1,0,0,1,1.1.16,12.56,12.56,0,0,0,.73,1.74c1.18,2.7,2.37,5.39,3.56,8.09.06.13.12.26.17.39a.15.15,0,0,1,0,.11.14.14,0,0,1-.11,0l-.39-.16-5-2.19L249.27,98c-.19-.08-.38-.14-.57-.21-.06-.38-.11-.76-.18-1.13,0-.06-.1-.11-.15-.17l1.42-1.19.24.06,2.92,1c.09,0,.19.11.28,0s0-.18,0-.27l-.43-1.2-.7-2A14.09,14.09,0,0,1,253.16,91.62Z" transform="translate(-14.65 -3.8)"/><path class="cls-12" d="M260.91,68.31a1.19,1.19,0,0,1-.52-.14,2.11,2.11,0,0,0-.81-.24c-.11-.6-.21-1.2-.32-1.8l.29-.21,1.07-.9,1.17-1a.77.77,0,0,0,.12-.13.14.14,0,0,0-.07-.24l-1.07-.2-2.32-.42a11.57,11.57,0,0,1-.63-1.7,1,1,0,0,0,.2-.14c.24-.29.47-.6.7-.89.22,0,.43.11.65.13l4.55.5,2.86.28,3.18.37c-.07.23-.27.3-.42.41q-2.54,1.86-5.08,3.71Z" transform="translate(-14.65 -3.8)"/><path class="cls-11" d="M197.72,68.3a2.08,2.08,0,0,0,.81-.22.92.92,0,0,1,.51-.15,7.17,7.17,0,0,1-.12,1.31c0,.46-.08.92-.12,1.38a.66.66,0,0,1-.08.34l-.29.1-2.3,1.08-.6.28a.12.12,0,0,0,0,.2l1.25.59,1.93.87c.1.12.06.27.08.41a.62.62,0,0,1-.42.8,3.14,3.14,0,0,0-1.09.87.41.41,0,0,1-.53.11c-1.75-.69-3.52-1.37-5.28-2-1.21-.47-2.42-.93-3.63-1.41a1.52,1.52,0,0,1-.6-.29,1.32,1.32,0,0,1,.43-.21l9.49-3.68C197.36,68.55,197.62,68.55,197.72,68.3Z" transform="translate(-14.65 -3.8)"/><path class="cls-11" d="M248.69,47.26c-.06.42-.11.84-.17,1.25,0,.05-.08.09-.12.14L246,46.91a18.14,18.14,0,0,0,.14-1.81.36.36,0,0,1,0-.18c.16-.54,0-1.1.17-1.63,0-.06-.06-.12-.12-.1a1,1,0,0,0-.26.15c-.6.41-1.22.81-1.8,1.25a4.57,4.57,0,0,0-1,.73c-.76-.31-.61-.22-.59-.91s0-1.13,0-1.69a.78.78,0,0,1,.31-.68c.62-.48,1.24-1,1.86-1.48l5-4.05a1.73,1.73,0,0,1,.61-.41,4,4,0,0,1-.13,1c-.21,1.42-.45,2.84-.67,4.27l-.66,4.33C248.84,46.25,248.76,46.76,248.69,47.26Z" transform="translate(-14.65 -3.8)"/><path class="cls-12" d="M210.22,96.51c-.07,0-.14.11-.14.19a7.8,7.8,0,0,1-.15,1.08c-1,.41-1.91.82-2.85,1.24l-6.92,3c-.15.06-.29.13-.45.18s-.14,0-.12-.07a2.84,2.84,0,0,1,.34-.78c0-.08.13-.08.21-.08a.81.81,0,0,0,.79-.37,1.33,1.33,0,0,0,.24-1.09,2.8,2.8,0,0,0-.13-.41.69.69,0,0,1,0-.68c.63-1.41,1.25-2.83,1.88-4.24.34-.76.67-1.53,1-2.29a.83.83,0,0,0,.1-.35,6.27,6.27,0,0,0,1.36-.25A11.77,11.77,0,0,1,206.53,93c-.2.66-.41,1.31-.67,2-.18.47-.34,1-.51,1.43,0,.07.06.16.14.13l.86-.3,2.46-.87A10.05,10.05,0,0,1,210.22,96.51Z" transform="translate(-14.65 -3.8)"/><path class="cls-11" d="M248.37,96.49c0,.06.14.11.15.17.07.37.12.75.18,1.13.09.66.18,1.32.28,2,.18,1.18.37,2.36.55,3.55l.69,4.39c.06.4.11.8.17,1.21-.24,0-.35-.16-.49-.27l-5.23-4.21L243,103.11a.44.44,0,0,1-.21-.41,7.84,7.84,0,0,1,.38-2.88c.26.16.52.31.77.48.61.43,1.21.87,1.83,1.29.14.1.3.31.46.23s0-.31,0-.48,0-.36,0-.54,0-.33,0-.49L246,98.15Z" transform="translate(-14.65 -3.8)"/><path class="cls-12" d="M225.1,40.93a2.09,2.09,0,0,1-.25.85,1.14,1.14,0,0,0-.13.57c-.6.1-1.19.27-1.8.31a.63.63,0,0,0-.15-.32c-.37-.45-.74-.91-1.12-1.35a8.72,8.72,0,0,1-.74-.87,1.1,1.1,0,0,0-.22-.21.14.14,0,0,0-.23.09c-.12.66-.25,1.31-.36,2s-.17,1-.26,1.54a9.6,9.6,0,0,1-1.42.52,3,3,0,0,1-.93-.61c-.12-.09-.21-.24-.37-.29a8.81,8.81,0,0,0,.23-1.69c.13-.93.2-1.86.3-2.79s.21-1.89.32-2.84c.05-.51.1-1,.16-1.52,0-.12,0-.23,0-.38a4.64,4.64,0,0,1,1.1.41c.44.23.85.48,1.29.7a1.53,1.53,0,0,1,.59.51Z" transform="translate(-14.65 -3.8)"/><path class="cls-12" d="M233.52,104.11a1.14,1.14,0,0,1,.16-.57,1.87,1.87,0,0,0,.21-.81,11.08,11.08,0,0,1,1.81-.33.88.88,0,0,0,.1.22l1.36,1.62c.23.28.47.56.71.83,0,.05.12.12.21.06a.22.22,0,0,0,.08-.14c.13-.63.26-1.26.37-1.9s.17-1,.26-1.54l1.11-.44c.17.11.14.27.16.4.15,1.08.28,2.17.35,3.27a23.57,23.57,0,0,1-.25,3.94c-.07.59-.24,1.16-.35,1.73,0,.23-.09.27-.33.26s-.73,0-1.1,0a4.09,4.09,0,0,1-.64-.8Z" transform="translate(-14.65 -3.8)"/><path class="cls-11" d="M205.41,91.64a6.27,6.27,0,0,1-1.36.25l-2,.3-2.83.43-1,.14c-.22,0-.25,0-.31-.2a2.45,2.45,0,0,1-.08-.29c-.24-1.07-.56-2.12-.85-3.18l0-.12a.75.75,0,0,1,.18-.83c.78-.94,1.54-1.89,2.3-2.85.16-.19.29-.39.44-.59l.84-1,.05,0a4.34,4.34,0,0,1,.42.93c.28.58.54,1.17.8,1.76-.51.85-1.12,1.64-1.68,2.46a1.61,1.61,0,0,0-.25.42.12.12,0,0,0,.11.17c.38,0,.77,0,1.16,0,.76-.06,1.53-.15,2.29-.22C204.24,90,204.83,90.82,205.41,91.64Z" transform="translate(-14.65 -3.8)"/><path class="cls-12" d="M260.57,76.74l.34,0L268.1,82,270,83.35c-.06.16-.17.11-.26.13l-.3,0-2.67.29-3,.32-1.82.18a.37.37,0,0,1-.29,0,.52.52,0,0,1,.05-.35,6.49,6.49,0,0,0,.33-1.86c0-.44,0-.89,0-1.33a2.88,2.88,0,0,0-.18-.89c-.19-.54-.39-1.08-.59-1.61a7.79,7.79,0,0,0-.34-.72A3.72,3.72,0,0,1,260.57,76.74Z" transform="translate(-14.65 -3.8)"/><path class="cls-7" d="M241.13,80a.32.32,0,0,0-.3-.17c-.27,0-.53,0-.8,0a3.17,3.17,0,0,1-1-.19.66.66,0,0,1-.48-.7.49.49,0,0,1,.33-.47,2.18,2.18,0,0,1,.72-.12,6.26,6.26,0,0,0,1.13-.08l-.56-.17a1.61,1.61,0,0,1-.83-.49.7.7,0,0,1-.18-.44.44.44,0,0,1,.28-.43,1.47,1.47,0,0,1,.59-.11,5.65,5.65,0,0,1,2.27.33.5.5,0,0,0,.36,0c.07-.14-.12-.18-.12-.29s0-.24,0-.37,0-.24,0-.34c.16-.08.26,0,.35.08a6.07,6.07,0,0,1,1.26,1.22,1.77,1.77,0,0,1,.38,1,2.42,2.42,0,0,0,0,.25c0,.06,0,.11.1.1a.1.1,0,0,0,.05-.1c0-.22,0-.44,0-.67a1.11,1.11,0,0,1,.08-.35c0-.07.1-.14.19-.09a.17.17,0,0,1,.1.13c0,.22,0,.44,0,.67,0,.83-.08,1.66-.13,2.49a.6.6,0,0,1-.06.23.11.11,0,0,1-.1,0c-.1-.09-.1-.21-.13-.33a.42.42,0,0,0-.14-.29,3.18,3.18,0,0,1-.26.35,2.25,2.25,0,0,1-.39.3,1.72,1.72,0,0,1-.38.2,3.47,3.47,0,0,1-.46.13l-.48.06c-.65.06-1.3,0-1.95.12a3.23,3.23,0,0,1-.54,0,1,1,0,0,1-.81-.47.48.48,0,0,1,0-.66A.94.94,0,0,1,240,80C240.35,80,240.74,80,241.13,80Zm1.7-2.94,0,0v0Z" transform="translate(-14.65 -3.8)"/><path class="cls-9" d="M194.82,87.49c0-.77,0-1.54-.13-2.31a1.56,1.56,0,0,1,0-.37c.08-.62.07-1.25.12-1.88a12,12,0,0,1,.28-1.43,11.76,11.76,0,0,1,.68-2.08,6.39,6.39,0,0,1,1.14-1.93c.14-.15.27-.3.4-.46a8.66,8.66,0,0,1,1.34-1.23,2.39,2.39,0,0,1,.24-.13c0,.23.06.42.1.61.08.43.12.85-.35,1.12a9.9,9.9,0,0,0-1.81,3.21A21.62,21.62,0,0,0,196,85a11.45,11.45,0,0,0,.12,3.15c.06.4.09.81.14,1.21a1.13,1.13,0,0,1-.4-.44C195.52,88.41,195.17,88,194.82,87.49Z" transform="translate(-14.65 -3.8)"/><path class="cls-12" d="M224.72,102.66a1.21,1.21,0,0,0,.13.59,2.18,2.18,0,0,1,.25.87l-4,5.47a3.53,3.53,0,0,1-.17-1.06,12.9,12.9,0,0,0-.15-2.06,5.93,5.93,0,0,1-.08-1.39,2.8,2.8,0,0,0,.65-.72l1.68-2A15.51,15.51,0,0,1,224.72,102.66Z" transform="translate(-14.65 -3.8)"/><path class="cls-12" d="M188.69,83.42c.42-.4,5.52-4.16,6.6-4.88.11.13,0,.23,0,.32a23.48,23.48,0,0,0-.9,3,9.69,9.69,0,0,0-.16,1.08c0,.17,0,.33,0,.49-.13.74,0,.68-.72.59-.92-.13-1.85-.18-2.78-.3A14.16,14.16,0,0,1,188.69,83.42Z" transform="translate(-14.65 -3.8)"/><path class="cls-5" d="M242.4,110.83a.43.43,0,0,1-.16,0c-.47,0-.93-.06-1.4-.11-.21,0-.24-.09-.21-.27a18.09,18.09,0,0,0,.28-6.31c-.07-.46,0-.93-.13-1.39s-.18-1.08-.26-1.62c0-.21,0-.32.19-.4l1.69-.72a.58.58,0,0,1,0,.2,10,10,0,0,0-.22,3.14c0,.45,0,.9,0,1.35,0,1.15,0,2.31,0,3.47a14.64,14.64,0,0,0,.22,2.19C242.41,110.55,242.48,110.68,242.4,110.83Z" transform="translate(-14.65 -3.8)"/><path class="cls-6" d="M214.7,111.18c.33,1.25.63,2.51.87,3.78.1.54.23,1.07.38,1.6.53,1.72,1,3.47,1.56,5.17a26.28,26.28,0,0,1,.87,3.47,4.52,4.52,0,0,1,.11,1.27.2.2,0,0,1-.24.21.45.45,0,0,0,0-.41,3.64,3.64,0,0,0-.36-.49,6.87,6.87,0,0,0-1.2-1.21.65.65,0,0,1-.25-.52c-.08-.93-.21-1.86-.38-2.78s-.22-1.61-.34-2.41-.23-1.65-.4-2.46c-.1-.44-.09-.89-.18-1.32-.21-1.1-.39-2.2-.58-3.3a2.63,2.63,0,0,1-.06-.48C214.47,111.17,214.59,111.16,214.7,111.18Z" transform="translate(-14.65 -3.8)"/><path class="cls-6" d="M237.67,113.25a.41.41,0,0,1,.12.33,14.47,14.47,0,0,0,.58,3.52c.19.81.32,1.63.55,2.43a22.85,22.85,0,0,1,.67,3.27c.09.74.24,1.47.38,2.2a3.11,3.11,0,0,1,0,.61,10.33,10.33,0,0,0-2.34-1.63.35.35,0,0,1-.21-.39q.08-1.22.12-2.43c.05-1.34.07-2.68.14-4,0-.93,0-1.86,0-2.8Z" transform="translate(-14.65 -3.8)"/><path class="cls-7" d="M200.39,98.29a.87.87,0,0,0-1.36,0,1.37,1.37,0,0,0-.8-.3c-.28,0-.29,0-.32-.32,0-.09,0-.15-.1-.18l-.45-.16a.6.6,0,0,0-.58.1.24.24,0,0,0-.09.15.22.22,0,0,0,.11.14c.17.07.35.11.52.18a.14.14,0,0,1,.08.23,1.85,1.85,0,0,1-1.65.72.82.82,0,0,1-.6-1.17,2.73,2.73,0,0,1,1.27-1.43.28.28,0,0,0,.17-.24c-.06-.11-.17,0-.26,0a1.54,1.54,0,0,0-.3,0l-.29,0-.06,0s0-.1,0-.12a1.12,1.12,0,0,1,.51-.31,11.39,11.39,0,0,1,2.37-.51c.26,0,.52-.08.78-.12s.22,0,.27.09,0,.23-.1.32a.34.34,0,0,1-.33.11,2.05,2.05,0,0,0-.74,0,2.74,2.74,0,0,1,1.53,1.3A2.52,2.52,0,0,1,200.39,98.29ZM198.2,97c-.14,0-.19.19-.26.3s-.08.15,0,.19.1,0,.14-.07a.43.43,0,0,0,.15-.37.51.51,0,0,0,.07-.15s0-.07,0-.1-.06,0-.07.08S198.21,97,198.2,97Z" transform="translate(-14.65 -3.8)"/><path class="cls-12" d="M200.8,83.69l-.05,0-.84,1-2.49-.28c-1-.12-.87,0-.73-.92.07-.4.12-.81.18-1.21a1.75,1.75,0,0,1,.25-.8,3.25,3.25,0,0,1,.54,0l1.58.31.95.16A10.23,10.23,0,0,1,200.8,83.69Z" transform="translate(-14.65 -3.8)"/><path class="cls-5" d="M219.8,104.59c0,.47.08.93.13,1.4.11,1.23.27,2.46.34,3.69,0,1,.23.83-.77.83a1.42,1.42,0,0,1-.63-.08c0-.55,0-1.12,0-1.68a14.26,14.26,0,0,0-.17-2.36c-.13-.89-.29-1.76-.4-2.65l.51.32A4.07,4.07,0,0,0,219.8,104.59Z" transform="translate(-14.65 -3.8)"/><path class="cls-6" d="M226.27,130.11c.28,0,.59,0,.6.38s-.24.39-.48.49h-.06a6,6,0,0,1-2.1.16,2,2,0,0,0-.73,0,7.54,7.54,0,0,1-1.57.11,4,4,0,0,0-1.15.09,1.55,1.55,0,0,1-.43,0H218.7a3.66,3.66,0,0,0-1.09.09,2,2,0,0,1-.49,0c-1.26,0-2.52,0-3.78,0-.44,0-.88.05-1.32.09l-.24,0a8.93,8.93,0,0,0-1.27,0,6.08,6.08,0,0,1-1.21,0,2.6,2.6,0,0,1-1.09-.36A.4.4,0,0,1,208,131l.41.13a2.44,2.44,0,0,0,1,.16c.64,0,1.3,0,1.94,0,1.32-.13,2.64-.06,4-.2.62-.07,1.26,0,1.89,0l3.71-.1,2.56,0a3.45,3.45,0,0,0,.85-.08,2.09,2.09,0,0,1,.61,0,5.59,5.59,0,0,0,1.08-.13c.15,0,.2-.11.2-.25A1,1,0,0,1,226.27,130.11Z" transform="translate(-14.65 -3.8)"/><path class="cls-5" d="M194.82,87.49c.35.46.7.92,1,1.39a1.13,1.13,0,0,0,.4.44c.14.67.28,1.35.44,2a16,16,0,0,0,1.06,3.22l.06.16c0,.11-.13.09-.2.11-.61.16-.6.15-.91-.41a14.22,14.22,0,0,1-1.3-3.33c-.25-1-.4-2-.57-3A3.37,3.37,0,0,1,194.82,87.49Z" transform="translate(-14.65 -3.8)"/><path class="cls-6" d="M246.33,131c.17.09.13.24.14.39-.21.27-.56.3-.84.46a.28.28,0,0,0-.29-.06A5.78,5.78,0,0,1,244,132a6,6,0,0,0-.72.11c-.48.08-1,.16-1.44.22s-.84.07-1.26.13c-.65.09-1.28.2-1.92.33s-1.23.23-1.85.32-1.39,0-2.06.12a16.9,16.9,0,0,1-2.56.09,8.92,8.92,0,0,1-1.45-.15c-.24,0-.55-.06-.62-.4.92,0,1.83.11,2.74.12s1.91,0,2.87-.06a.62.62,0,0,0,.24,0c.5-.29,1.08-.17,1.6-.33a9.92,9.92,0,0,1,1.62-.25l.42-.07a9.93,9.93,0,0,1,1.63-.19,22.65,22.65,0,0,0,2.48-.27,7.38,7.38,0,0,1,1.75-.18C245.88,131.54,246.1,131.25,246.33,131Z" transform="translate(-14.65 -3.8)"/><path class="cls-8" d="M230.48,126.59h-4.17a7.94,7.94,0,0,1,0-1.09c0-.14.07-.24.21-.24.82,0,1.62-.18,2.44-.14.32,0,.64,0,1,.09a13.1,13.1,0,0,0,1.4,0,.64.64,0,0,1,.44.06c-.08.14-.23.2-.34.31s-.19.21-.29.31l-.34.35C230.67,126.39,230.61,126.53,230.48,126.59Z" transform="translate(-14.65 -3.8)"/><path class="cls-9" d="M206.65,52.07a1,1,0,0,1-.27-.53c-.34-.93-.68-1.86-1-2.79a.13.13,0,0,1,0-.16c0-.06.11,0,.17,0l2.22.8a5.85,5.85,0,0,0,1.21.38l-.46.48Z" transform="translate(-14.65 -3.8)"/><path class="cls-9" d="M235.7,42.67a1,1,0,0,1,.11-.28c.52-.61,1.05-1.22,1.57-1.84l.5-.6c.11-.12.24-.09.28,0,.08.4.17.79.25,1.19.11.63.23,1.26.33,1.89a3,3,0,0,1,0,.43,14.29,14.29,0,0,1-1.46-.4C236.78,43,236.24,42.82,235.7,42.67Z" transform="translate(-14.65 -3.8)"/><path class="cls-9" d="M212.65,47c0-.69-.13-1.37-.17-2.06,0-.48-.11-1-.09-1.45a.14.14,0,0,1,.21-.14l.21.11.71.48L215.06,45a1.18,1.18,0,0,1,.4.37l-1.15.65Z" transform="translate(-14.65 -3.8)"/><path class="cls-9" d="M227.76,42a1.24,1.24,0,0,1,.06-.29c.46-1,.94-2,1.41-3l.1-.11a9.19,9.19,0,0,1,.83,1.66A13.25,13.25,0,0,1,231,42Z" transform="translate(-14.65 -3.8)"/><path class="cls-9" d="M231,103c-.49,1.06-1,2.12-1.49,3.18a.64.64,0,0,1-.1.13c-.13,0-.14-.07-.17-.13-.46-1-.91-1.9-1.36-2.85a3.38,3.38,0,0,1-.11-.34Z" transform="translate(-14.65 -3.8)"/><path class="cls-9" d="M219.84,43.5c.09-.51.17-1,.26-1.54s.24-1.3.36-2a.14.14,0,0,1,.23-.09,1.1,1.1,0,0,1,.22.21,8.72,8.72,0,0,0,.74.87c.38.44.75.9,1.12,1.35a.63.63,0,0,1,.15.32,1.4,1.4,0,0,1-.63.19c-.71.16-1.4.38-2.09.58A2.29,2.29,0,0,1,219.84,43.5Z" transform="translate(-14.65 -3.8)"/><path class="cls-9" d="M246,98.15l.21,2.16c0,.16,0,.32,0,.49s0,.36,0,.54.2.38,0,.48-.32-.13-.46-.23c-.62-.42-1.22-.86-1.83-1.29-.25-.17-.51-.32-.77-.48,0-.12.08-.17.17-.22Z" transform="translate(-14.65 -3.8)"/><path class="cls-9" d="M256.52,86.37a3,3,0,0,1,.25.25c.55.78,1.08,1.57,1.62,2.35l.09.16c.12.21.07.32-.16.31a4.5,4.5,0,0,1-1.32-.09.25.25,0,0,0-.12,0c-.67,0-1.33-.13-2-.14L256,87.36Z" transform="translate(-14.65 -3.8)"/><path class="cls-9" d="M243.17,45.32a4.57,4.57,0,0,1,1-.73c.58-.44,1.2-.84,1.8-1.25a1,1,0,0,1,.26-.15c.06,0,.14,0,.12.1-.16.53,0,1.09-.17,1.63a.36.36,0,0,0,0,.18,18.14,18.14,0,0,1-.14,1.81,3.48,3.48,0,0,1-.43-.22c-.69-.43-1.4-.84-2.14-1.21C243.34,45.44,243.26,45.37,243.17,45.32Z" transform="translate(-14.65 -3.8)"/><path class="cls-9" d="M238.79,101.55c-.09.51-.17,1-.26,1.54s-.24,1.27-.37,1.9a.22.22,0,0,1-.08.14c-.09.06-.16,0-.21-.06-.24-.27-.48-.55-.71-.83l-1.36-1.62a.88.88,0,0,1-.1-.22Z" transform="translate(-14.65 -3.8)"/><path class="cls-9" d="M202.1,58.65a7,7,0,0,1-.77-1c-.39-.51-.74-1.06-1.11-1.59a2.39,2.39,0,0,1-.12-.22c0-.11,0-.22.11-.22a5.49,5.49,0,0,1,1.28,0,1,1,0,0,0,.29.05c.66,0,1.3.12,1.94.15a1.09,1.09,0,0,1-.26.47c-.43.67-.83,1.37-1.2,2.08A2.13,2.13,0,0,1,202.1,58.65Z" transform="translate(-14.65 -3.8)"/><path class="cls-9" d="M249.77,49.83a.67.67,0,0,1,.21-.13l3.07-1.12,0,0c.13,0,.21,0,.17.16-.11.35-.22.7-.35,1-.22.62-.46,1.24-.7,1.87a1,1,0,0,1-.22.42Z" transform="translate(-14.65 -3.8)"/><path class="cls-9" d="M199.4,66.11a.88.88,0,0,1-.22-.1l-1.93-1.66c-.18-.16-.42-.25-.56-.47a.15.15,0,0,1,.06-.2l1.25-.25,2.26-.38c-.27.84-.52,1.68-.72,2.54C199.5,65.77,199.45,65.94,199.4,66.11Z" transform="translate(-14.65 -3.8)"/><path class="cls-9" d="M255,55.94c.26-.18.59-.09.87-.21.71,0,1.41-.15,2.12-.14.1,0,.2,0,.3,0s.31.1.19.3l-.67,1-1.22,1.74a12.88,12.88,0,0,1-.69-1.2C255.6,57,255.31,56.44,255,55.94Z" transform="translate(-14.65 -3.8)"/><path class="cls-9" d="M203.65,89.19c-.76.07-1.53.16-2.29.22-.39,0-.78,0-1.16,0a.12.12,0,0,1-.11-.17,1.61,1.61,0,0,1,.25-.42c.56-.82,1.17-1.61,1.68-2.46l1.18,2Z" transform="translate(-14.65 -3.8)"/><path class="cls-9" d="M258.45,63.05l2.32.42,1.07.2a.14.14,0,0,1,.07.24.77.77,0,0,1-.12.13l-1.17,1-1.07.9-.29.21c-.26-1-.47-1.95-.8-2.9A.53.53,0,0,1,258.45,63.05Z" transform="translate(-14.65 -3.8)"/><path class="cls-9" d="M252.09,93l.7,2,.43,1.2c0,.09.12.19,0,.27s-.19,0-.28,0l-2.92-1-.24-.06.64-.64C251,94.09,251.54,93.53,252.09,93Z" transform="translate(-14.65 -3.8)"/><path class="cls-9" d="M208.81,95.31l-2.46.87-.86.3c-.08,0-.17-.06-.14-.13.17-.48.33-1,.51-1.43.26-.64.47-1.29.67-2l.56.56c.52.53,1,1.09,1.59,1.58A.69.69,0,0,1,208.81,95.31Z" transform="translate(-14.65 -3.8)"/><path class="cls-9" d="M259.92,71c.4.16.79.32,1.18.5.59.26,1.18.54,1.77.82.1,0,.27.08.27.21s-.17.19-.29.25c-.63.3-1.25.6-1.88.88-.35.16-.71.3-1.06.45C259.91,73,259.92,72,259.92,71Z" transform="translate(-14.65 -3.8)"/><path class="cls-9" d="M215.45,99.82l-2.51,1.71a3.47,3.47,0,0,1-.37.21.13.13,0,0,1-.18-.12,4.93,4.93,0,0,1,.05-1.15,2,2,0,0,0,.05-.24c0-.67.13-1.33.14-2,.33.18.65.38,1,.56Z" transform="translate(-14.65 -3.8)"/><path class="cls-9" d="M198.72,74.08l-1.93-.87-1.25-.59a.12.12,0,0,1,0-.2l.6-.28,2.3-1.08.29-.1v3.12Z" transform="translate(-14.65 -3.8)"/><path class="cls-9" d="M219.8,104.59a4.07,4.07,0,0,1-1-.53l-.51-.32-.51-2.13c0-.18-.1-.35-.14-.53a.28.28,0,0,1,0-.29h0a1,1,0,0,1,.47.09l1.2.43c.39.15.42.15.37.56a10.39,10.39,0,0,0,.09,2.23C219.79,104.27,219.79,104.43,219.8,104.59Z" transform="translate(-14.65 -3.8)"/><path class="cls-9" d="M200.19,82l-.95-.16-1.58-.31a3.25,3.25,0,0,0-.54,0,5.24,5.24,0,0,1,.47-1.21.48.48,0,0,0,.32-.15l1.18-1a.59.59,0,0,1,.31-.17c.23.9.44,1.81.73,2.7C200.16,81.74,200.17,81.86,200.19,82Z" transform="translate(-14.65 -3.8)"/><path class="cls-9" d="M223,102.37l-1.68,2a2.8,2.8,0,0,1-.65.72,10.74,10.74,0,0,1-.16-1.69c0-.54-.13-1.08-.08-1.62a.77.77,0,0,1,.48,0c.66.21,1.33.35,2,.49C223,102.31,223,102.35,223,102.37Z" transform="translate(-14.65 -3.8)"/><path class="cls-7" d="M199.23,100.38a2.37,2.37,0,0,1-.16,1,.49.49,0,0,1-.45.34.55.55,0,0,1-.56-.38,2.9,2.9,0,0,1-.2-1.13,1.77,1.77,0,0,0-.16-.88,3.85,3.85,0,0,1-.2-.57.36.36,0,0,1,.41-.45l.05,0a1.2,1.2,0,0,1,1.11,1A5.1,5.1,0,0,1,199.23,100.38Z" transform="translate(-14.65 -3.8)"/><path class="cls-11" d="M195.43,93.19c-.84.2-1.67.27-2.47.41-.11-.14,0-.21.06-.27l1.56-2c.14-.16.25-.15.31,0C195.07,92,195.25,92.57,195.43,93.19Z" transform="translate(-14.65 -3.8)"/><path class="cls-7" d="M197.21,98.75c.09.53.18,1,.26,1.49a.39.39,0,0,1-.05.3,3.48,3.48,0,0,1-.28.39.49.49,0,0,1-.88-.13,2.69,2.69,0,0,1-.24-.69c-.06-.27-.08-.55-.12-.87A3.08,3.08,0,0,0,197.21,98.75Z" transform="translate(-14.65 -3.8)"/><path class="cls-13" d="M259.23,79a.73.73,0,0,1,.28.5,3.81,3.81,0,0,1,0,2.09,1.69,1.69,0,0,1-.25.48.38.38,0,0,1-.26.14,4.9,4.9,0,0,1-.54,0c-.15,0-.22-.08-.18-.23s.15-.47.22-.7c.2-.65.4-1.31.54-2A.65.65,0,0,1,259.23,79Z" transform="translate(-14.65 -3.8)"/><path class="cls-7" d="M200.79,100.06a.85.85,0,0,1-.24.62.45.45,0,0,1-.58.17.29.29,0,0,1-.24-.31c0-.16,0-.32,0-.48a3,3,0,0,0-.3-1.24.25.25,0,0,1,.07-.32c.17-.14.35-.19.44-.1a2.64,2.64,0,0,1,.89,1.42A1.49,1.49,0,0,1,200.79,100.06Z" transform="translate(-14.65 -3.8)"/><path class="cls-12" d="M217.28,102.68a11.45,11.45,0,0,1,.45,2c.2,1.39.27,2.79.37,4.18,0,.2,0,.41,0,.65a1.24,1.24,0,0,1-.19-.61c-.13-1.29-.26-2.58-.4-3.88-.06-.52-.13-1.05-.18-1.57C217.3,103.25,217.3,103,217.28,102.68Z" transform="translate(-14.65 -3.8)"/><path class="cls-12" d="M199.4,78.92a.59.59,0,0,0-.31.17l-1.18,1a.48.48,0,0,1-.32.15.68.68,0,0,1,.11-.34,10.64,10.64,0,0,1,1-1.66,1.53,1.53,0,0,1,.46-.49A4.72,4.72,0,0,1,199.4,78.92Z" transform="translate(-14.65 -3.8)"/><path class="cls-7" d="M257.58,34.58a.54.54,0,0,0,.49-.37c.06-.15.12-.3.19-.44a.17.17,0,0,1,.14-.09.19.19,0,0,1,.13.1c.1.27.19.53.27.8a.44.44,0,0,0,.15.25,10.1,10.1,0,0,1-1.19.86A3.68,3.68,0,0,1,257.58,34.58Z" transform="translate(-14.65 -3.8)"/><path class="cls-14" d="M206.65,128.53l-.23,0c-.26,0-.44.13-.65.22a1.62,1.62,0,0,1-.71.24h0a4.24,4.24,0,0,1,1.6-.73Z" transform="translate(-14.65 -3.8)"/><path class="cls-9" d="M215.31,46.11c0,.17-.11.21-.26.17A.36.36,0,0,1,215.31,46.11Z" transform="translate(-14.65 -3.8)"/><path class="cls-9" d="M214,98a.22.22,0,0,1,.24.15A.3.3,0,0,1,214,98Z" transform="translate(-14.65 -3.8)"/><path class="cls-9" d="M217.65,100.79c-.05,0-.07,0-.07,0h0c.08,0,0,0,0,0Z" transform="translate(-14.65 -3.8)"/><polygon class="cls-6" points="203.46 122.86 203.42 122.86 203.4 122.82 203.44 122.82 203.46 122.86"/><path class="cls-9" d="M213.82,97.89a.14.14,0,0,1,.15.1A.13.13,0,0,1,213.82,97.89Z" transform="translate(-14.65 -3.8)"/><path class="cls-6" d="M198.35,35s-.06.1-.12.06,0-.09,0-.14Z" transform="translate(-14.65 -3.8)"/><path class="cls-15" d="M236.22,66.76c0,.45,0,.89,0,1.34a14.82,14.82,0,0,1-.21,2.74,4.93,4.93,0,0,0,0,.54,9.41,9.41,0,0,1-.7,2.82,2.39,2.39,0,0,1-.13.28.76.76,0,0,1-1.08.35,1.5,1.5,0,0,1-.69-.65,5.24,5.24,0,0,1-.62-2.34c0-.55-.05-1.1-.1-1.64a31.77,31.77,0,0,1-.08-3.65q0-1.74.09-3.48a12.88,12.88,0,0,1,.4-2.83,1.88,1.88,0,0,1,.8-1.18.7.7,0,0,1,.9,0,2.57,2.57,0,0,1,.85,1.24,10.4,10.4,0,0,1,.34,1.36,15,15,0,0,1,.19,1.5C236.28,64.36,236.18,65.56,236.22,66.76Z" transform="translate(-14.65 -3.8)"/><path class="cls-15" d="M213.69,64.75c0-.8.07-1.41.05-2a7.88,7.88,0,0,1,.75-3.06.81.81,0,0,1,1.28-.27,2.1,2.1,0,0,1,.49.62,5.39,5.39,0,0,1,.54,1.55,21.76,21.76,0,0,1,.32,2.54c.09,1.24.2,2.47.26,3.71.05.92.05,1.84,0,2.75a11.88,11.88,0,0,1-.35,2.59,2.68,2.68,0,0,1-.27.68,1,1,0,0,1-.48.45.56.56,0,0,1-.63-.07,1.53,1.53,0,0,1-.49-.68,18.49,18.49,0,0,1-.59-1.92,34.61,34.61,0,0,1-.79-4.75A18.48,18.48,0,0,1,213.69,64.75Z" transform="translate(-14.65 -3.8)"/><path class="cls-1" d="M224.67,87.12a2.84,2.84,0,0,1-1.92-.53,1.84,1.84,0,0,1-.5-.61,10.55,10.55,0,0,1-.62-1.65.06.06,0,0,1,0-.06.48.48,0,0,1,.08-.16.11.11,0,0,1,.16,0,4.33,4.33,0,0,1,.38.47,4.12,4.12,0,0,0,.84.88,2.09,2.09,0,0,0,1.23.45,6.4,6.4,0,0,0,1.16-.05,1.22,1.22,0,0,0,.91-.65,2.82,2.82,0,0,0,.35-.84,1,1,0,0,1,.21-.5.16.16,0,0,1,.22,0,.53.53,0,0,1,.21.54,6,6,0,0,1-.41,1.21A2.54,2.54,0,0,1,224.67,87.12Z" transform="translate(-14.65 -3.8)"/><path class="cls-16" d="M240.62,134.65a2.37,2.37,0,0,1,1-.35c.69-.16,1.38-.3,2.08-.43.44-.08.88-.13,1.32-.2a22.46,22.46,0,0,0,2.66-.66,8.9,8.9,0,0,0,1.12-.47,2.46,2.46,0,0,1,.29-.09h0c-.1.26-.34.34-.55.44a16,16,0,0,1-4,1.16c-1,.16-1.91.33-2.86.53a4.38,4.38,0,0,1-1,.07Z" transform="translate(-14.65 -3.8)"/><path class="cls-14" d="M224.82,135a5,5,0,0,1-2,0,1.56,1.56,0,0,0-.31,0,17,17,0,0,1-3.41-.44,12.87,12.87,0,0,0-1.39-.17,2.34,2.34,0,0,1-.59-.09,1,1,0,0,0-.3,0,4.44,4.44,0,0,1-1.31-.16,1.47,1.47,0,0,1,.82-.05,4,4,0,0,0,.84.09c.54.05,1.08.11,1.62.19l1.79.29,1.5.23c.14,0,.28,0,.42,0a4.47,4.47,0,0,1,1.21.1,1.54,1.54,0,0,0,.48,0Z" transform="translate(-14.65 -3.8)"/><path class="cls-14" d="M204,129.89a.67.67,0,0,1-.24.41.78.78,0,0,0-.11.94c0,.11.12.21.17.32a.11.11,0,0,1,0,.1h-.11l0,0a.84.84,0,0,1-.33-.8c.07-.4.2-.83.69-1Z" transform="translate(-14.65 -3.8)"/><path class="cls-14" d="M249.54,130.6a.39.39,0,0,1,.33.22.78.78,0,0,1,.14.51,1.33,1.33,0,0,1-.42.83s-.11,0-.17,0h0c0-.16.11-.26.19-.37a.75.75,0,0,0,.05-.86,3.42,3.42,0,0,1-.13-.34Z" transform="translate(-14.65 -3.8)"/><path class="cls-14" d="M205.06,132.69a.7.7,0,0,1,.35.06c.21.09.36.22.27.25s-.23-.06-.33-.11a.5.5,0,0,1-.3-.2Z" transform="translate(-14.65 -3.8)"/><path class="cls-14" d="M205.05,132.69a.8.8,0,0,1-.61-.36h0a.6.6,0,0,1,.61.37Z" transform="translate(-14.65 -3.8)"/><path class="cls-14" d="M204.44,132.33c-.17,0-.32-.07-.32-.28a.07.07,0,0,1,0,0c.2,0,.25.14.28.31Z" transform="translate(-14.65 -3.8)"/><path class="cls-14" d="M247.45,129.27c.16,0,.33,0,.41.17,0,0,0,0,0,0-.2.06-.3-.06-.37-.21Z" transform="translate(-14.65 -3.8)"/><path class="cls-14" d="M249,130.13a.44.44,0,0,1-.49-.25h0a.45.45,0,0,1,.49.24Z" transform="translate(-14.65 -3.8)"/><path class="cls-14" d="M204.68,129.26a.39.39,0,0,1,.37-.24h0a.39.39,0,0,1-.37.25Z" transform="translate(-14.65 -3.8)"/><path class="cls-14" d="M204.31,129.51a.4.4,0,0,1,.37-.25v0a.38.38,0,0,1-.36.24Z" transform="translate(-14.65 -3.8)"/><path class="cls-16" d="M249.05,132.45a.41.41,0,0,1,.36-.26h0a.37.37,0,0,1-.38.24Z" transform="translate(-14.65 -3.8)"/><path class="cls-14" d="M248.31,129.76a1,1,0,0,1-.16,0,.12.12,0,0,1,0-.1.08.08,0,0,1,.14,0,.38.38,0,0,1,.05.15Z" transform="translate(-14.65 -3.8)"/><path class="cls-14" d="M249.05,130.12a.23.23,0,0,1,.25.24l0,0a.25.25,0,0,1-.24-.25Z" transform="translate(-14.65 -3.8)"/><path class="cls-14" d="M247.46,129.27c-.14,0-.28,0-.37-.12h0c.13,0,.28,0,.36.12Z" transform="translate(-14.65 -3.8)"/><path class="cls-14" d="M248.31,129.75a.25.25,0,0,1,.25.13h0a.24.24,0,0,1-.24-.12Z" transform="translate(-14.65 -3.8)"/><path class="cls-14" d="M247.09,129.15l-.11,0s0,0,0,0,0-.06.09,0,0,.06.07.09Z" transform="translate(-14.65 -3.8)"/><path class="cls-14" d="M249.42,130.48l.12.12,0,0-.12-.12Z" transform="translate(-14.65 -3.8)"/><path class="cls-14" d="M249.4,130.5l-.12-.12,0,0,.12.12Z" transform="translate(-14.65 -3.8)"/><path class="cls-14" d="M203.94,129.87l.12-.12,0,0-.13.12Z" transform="translate(-14.65 -3.8)"/><path class="cls-14" d="M204.21,129.64l-.12.13,0,0,.13-.12Z" transform="translate(-14.65 -3.8)"/><path class="cls-14" d="M204.19,129.63l.12-.12h0l-.12.12Z" transform="translate(-14.65 -3.8)"/><path class="cls-16" d="M240.61,134.64l0,0,0,0Z" transform="translate(-14.65 -3.8)"/><path class="cls-8" d="M218,132.27a2.48,2.48,0,0,1-1.05,0,2.48,2.48,0,0,0-.54-.06h-1.53a3.05,3.05,0,0,0-.9.08,1.46,1.46,0,0,1-.42,0h-1.71a2.73,2.73,0,0,1-1-.25H214a3.47,3.47,0,0,0,.79-.07,1.6,1.6,0,0,1,.84,0,1.79,1.79,0,0,0,.61.06A9.18,9.18,0,0,1,218,132.27Z" transform="translate(-14.65 -3.8)"/><path class="cls-8" d="M245.63,131.8c.28-.16.63-.19.84-.46l.38-.24h0a.71.71,0,0,1-.46.59,6,6,0,0,1-1.26.59l-1.28.37a1.86,1.86,0,0,1-.79,0l1.06-.33c.37-.11.75-.19,1.11-.31C245.37,132,245.55,132,245.63,131.8Z" transform="translate(-14.65 -3.8)"/><path class="cls-8" d="M227.06,131.71a.82.82,0,0,1-.67.25h-2.64a.31.31,0,0,1,.33-.24,7.43,7.43,0,0,1,1.7.08,1.1,1.1,0,0,0,.67,0A1.76,1.76,0,0,1,227.06,131.71Z" transform="translate(-14.65 -3.8)"/><path class="cls-8" d="M227,131.73c.08-.22.31-.27.42-.45a1,1,0,0,0,.09-1c0-.06-.1-.15,0-.19s.14.06.18.13a1,1,0,0,1-.41,1.44C227.25,131.67,227.15,131.69,227,131.73Z" transform="translate(-14.65 -3.8)"/><path class="cls-8" d="M207,129.86l-.13.2a.53.53,0,0,0,.15.82c.11.08.27.09.34.23s0,0,0,0c-.55-.15-.64-.21-.78-.46a.5.5,0,0,1,.19-.77.78.78,0,0,1,.23-.08Z" transform="translate(-14.65 -3.8)"/><path class="cls-8" d="M246.85,131.1a.45.45,0,0,1,0-.11s0-.05,0,0a0,0,0,0,1,0,.08.31.31,0,0,1-.09.07Z" transform="translate(-14.65 -3.8)"/><polygon class="cls-1" points="228.18 73.23 228.23 73.22 228.22 73.25 228.18 73.23"/><path class="cls-1" d="M198.26,97.06a.43.43,0,0,1-.15.37s-.11.09-.14.07-.07-.12,0-.19.12-.25.26-.3Z" transform="translate(-14.65 -3.8)"/><path class="cls-1" d="M198.2,97s0-.08,0-.12.05,0,.07-.08.05.07,0,.1a.51.51,0,0,1-.07.15Z" transform="translate(-14.65 -3.8)"/></svg>